<?xml version="1.0" encoding="UTF-8" standalone="no"?>
<svg
   xmlns:dc="http://purl.org/dc/elements/1.1/"
   xmlns:cc="http://creativecommons.org/ns#"
   xmlns:rdf="http://www.w3.org/1999/02/22-rdf-syntax-ns#"
   xmlns:svg="http://www.w3.org/2000/svg"
   xmlns="http://www.w3.org/2000/svg"
   xmlns:sodipodi="http://sodipodi.sourceforge.net/DTD/sodipodi-0.dtd"
   xmlns:inkscape="http://www.inkscape.org/namespaces/inkscape"
   version="1.1"
   id="svg2"
   width="248.00566"
   height="81.870506"
   viewBox="0 0 248.00566 81.870506"
   sodipodi:docname="assinatura.svg"
   inkscape:version="1.0 (4035a4fb49, 2020-05-01)">
  <metadata
     id="metadata8">
    <rdf:RDF>
      <cc:Work
         rdf:about="">
        <dc:format>image/svg+xml</dc:format>
        <dc:type
           rdf:resource="http://purl.org/dc/dcmitype/StillImage" />
        <dc:title></dc:title>
      </cc:Work>
    </rdf:RDF>
  </metadata>
  <defs
     id="defs6" />
  <sodipodi:namedview
     fit-margin-bottom="0"
     fit-margin-right="0"
     fit-margin-left="0"
     fit-margin-top="0"
     inkscape:document-rotation="0"
     pagecolor="#ffffff"
     bordercolor="#666666"
     borderopacity="1"
     objecttolerance="10"
     gridtolerance="10"
     guidetolerance="10"
     inkscape:pageopacity="0"
     inkscape:pageshadow="2"
     inkscape:window-width="1920"
     inkscape:window-height="1025"
     id="namedview4"
     showgrid="false"
     inkscape:zoom="2.8284271"
     inkscape:cx="65.304404"
     inkscape:cy="8.959839"
     inkscape:window-x="0"
     inkscape:window-y="0"
     inkscape:window-maximized="1"
     inkscape:current-layer="g10" />
  <g
     transform="translate(-58.831136,-36.478529)"
     inkscape:groupmode="layer"
     inkscape:label="Image"
     id="g10">
    <g
       id="g837"
       transform="translate(-6.1688636,-26.650964)">
      <path
         style="fill:#b7b7b7"
         d="m 65,143.5 c 0,-0.825 0.476558,-1.5 1.059017,-1.5 0.582459,0 0.737931,-0.51953 0.345491,-1.15451 -0.404663,-0.65476 -0.277799,-0.88521 0.293079,-0.53239 1.259145,0.77819 8.888338,-3.07234 8.564409,-4.32254 -0.130902,-0.50522 0.505418,-0.63331 1.414045,-0.28463 1.100895,0.42245 1.413184,0.24746 0.936066,-0.52454 -0.443412,-0.71745 -0.205896,-0.96274 0.623903,-0.64432 1.693492,0.64985 11.038094,-5.90274 10.019135,-7.02558 -0.41533,-0.45768 -0.192645,-0.50844 0.494855,-0.1128 0.6875,0.39564 1.25,0.24279 1.25,-0.33967 0,-0.58246 0.5625,-0.94652 1.25,-0.80902 0.6875,0.1375 1.126351,-0.34595 0.975223,-1.07433 -0.151127,-0.72838 0.189552,-1.03736 0.757063,-0.68662 0.567512,0.35074 1.301806,-0.0658 1.631766,-0.92567 C 94.944011,122.70352 96.065833,122 97.106989,122 98.148145,122 99,121.52344 99,120.94098 c 0,-0.58246 -0.519529,-0.73793 -1.154508,-0.34549 -0.699101,0.43207 -0.883698,0.27535 -0.467975,-0.39731 0.377593,-0.61096 1.459622,-0.83379 2.404508,-0.49518 0.944885,0.33861 1.379495,0.24298 0.965795,-0.21252 -0.935006,-1.02947 2.196,-4.64324 3.38583,-3.90788 1.87074,1.15618 0.67809,3.27197 -3.38365,6.00262 -5.443654,3.65971 -11.049778,8.39619 -10.034796,8.47817 0.431638,0.0349 -0.256614,0.48105 -1.529449,0.99154 -1.460459,0.58573 -2.046932,1.39243 -1.589674,2.18661 0.398513,0.69215 0.351441,0.91998 -0.104604,0.50628 -0.456046,-0.4137 -1.730545,0.0363 -2.83222,1 -1.101675,0.9637 -1.674135,1.18968 -1.272134,0.50218 1.02919,-1.76011 0.497876,-1.60377 -5.01117,1.47463 -6.862865,3.83489 -8.63797,5.47014 -7.104751,6.54496 0.756209,0.53013 0.363461,0.61802 -1.021202,0.22853 C 68.926675,143.12589 68,143.30483 68,143.93261 68,144.51968 67.325,145 66.5,145 65.675,145 65,144.325 65,143.5 Z m 49.58501,-13.24832 c -1.06927,-1.06927 -0.60581,-1.82228 1.16499,-1.89284 0.9625,-0.0384 2.5375,-0.40793 3.5,-0.82128 1.00707,-0.43249 1.75,-0.32312 1.75,0.25763 0,1.18473 -5.55831,3.31317 -6.41499,2.45649 z m 7.49832,-2.53465 c 0.22917,-0.15563 1.31667,-0.94313 2.41667,-1.75 1.85001,-1.35701 1.89707,-1.33579 0.62756,0.28297 -0.75485,0.9625 -1.84235,1.75 -2.41667,1.75 -0.57432,0 -0.85672,-0.12734 -0.62756,-0.28297 z M 140.5,127 c -0.33992,-0.55 -0.14148,-1 0.44098,-1 0.58246,0 1.05902,0.45 1.05902,1 0,0.55 -0.19844,1 -0.44098,1 -0.24254,0 -0.7191,-0.45 -1.05902,-1 z m 4,-2 c 0.33992,-0.55 1.06803,-1 1.61803,-1 0.55,0 0.72189,0.45 0.38197,1 -0.33992,0.55 -1.06803,1 -1.61803,1 -0.55,0 -0.72189,-0.45 -0.38197,-1 z m 4.41882,-1.63961 c 0.53286,-0.26928 0.72096,-1.13553 0.41801,-1.925 -0.30294,-0.78946 -0.0261,-1.43539 0.6152,-1.43539 0.6413,0 0.90711,-0.41891 0.59068,-0.9309 -0.31644,-0.512 -0.0485,-1.25653 0.59549,-1.65451 0.78484,-0.48506 0.90097,-0.28698 0.35226,0.60084 -0.59931,0.96971 -0.35895,1.14808 0.89743,0.66596 1.15642,-0.44376 1.48251,-0.28071 1,0.5 -0.4949,0.80077 -0.13437,0.9353 1.16758,0.4357 1.03596,-0.39754 1.51912,-0.36151 1.07369,0.0801 -0.44543,0.44157 -1.77955,0.80285 -2.96471,0.80285 -1.19014,0 -2.15699,0.63422 -2.15964,1.41667 -0.003,0.77916 -0.57856,1.53291 -1.27981,1.675 -0.70125,0.14208 -0.83903,0.038 -0.30618,-0.23128 z m 33.48569,-2.5149 c -0.41322,-0.6686 -0.27709,-0.88477 0.32344,-0.51362 0.57034,0.35248 2.17335,-0.25299 3.56224,-1.3455 1.3889,-1.0925 3.12929,-1.95785 3.86754,-1.92298 0.73825,0.0349 0.3198,0.47405 -0.9299,0.97597 -1.24969,0.50193 -2.53533,1.5984 -2.85698,2.43662 -0.69036,1.79904 -2.95259,2.0098 -3.96634,0.36951 z m 15.26216,0.48784 c -0.36667,-0.36666 -0.65978,-1.15416 -0.65136,-1.75 0.008,-0.59583 0.43818,-0.41453 0.95501,0.40289 0.76958,1.21716 1.49017,1.27844 3.98037,0.3385 1.67236,-0.63125 3.26255,-0.78871 3.53374,-0.34991 0.89071,1.44119 -6.45807,2.71822 -7.81776,1.35852 z M 133,119.60699 c 0,-0.21616 0.69837,-0.661 1.55194,-0.98855 0.88992,-0.34149 1.29132,-0.17385 0.94098,0.39301 C 134.90566,119.96166 133,120.4169 133,119.60699 Z m 10.8125,-2.2901 c 0.72187,-0.28887 1.58437,-0.25335 1.91667,0.0789 0.33229,0.3323 -0.25834,0.56864 -1.3125,0.52522 -1.16495,-0.048 -1.4019,-0.28494 -0.60417,-0.60416 z m 12.1055,-0.71809 c 0.58556,-0.70555 0.73105,-1.65106 0.32332,-2.10113 -0.40772,-0.45008 -0.17882,-0.49462 0.50868,-0.099 2.0703,1.19141 3.52533,-0.35676 2.04856,-2.17968 -0.97342,-1.20158 -0.98558,-1.41489 -0.0486,-0.85195 0.6875,0.41304 1.25,0.37307 1.25,-0.0888 0,-0.46187 1.35313,-1.35052 3.00695,-1.97477 2.09899,-0.79228 2.80435,-0.80717 2.33596,-0.0493 -0.43351,0.70144 -0.0531,0.84859 1.07483,0.41576 0.96021,-0.36847 2.04653,-0.67683 2.41405,-0.68525 0.36751,-0.008 -0.007,-0.49268 -0.83179,-1.07613 -1.33333,-0.94295 -1.33333,-1.01472 0,-0.64592 0.825,0.22819 3.00333,-0.21065 4.84074,-0.97521 5.986,-2.49081 2.32015,0.47299 -5.31642,4.29827 -4.09586,2.05169 -7.26733,4.02111 -7.04769,4.37649 0.21964,0.35538 -0.95575,1.15764 -2.61197,1.78279 -2.43132,0.91772 -2.80625,0.88957 -1.94666,-0.14618 z m 6.57492,-4.58735 c 0.35034,-0.56686 -0.0511,-0.7345 -0.94098,-0.39301 -1.73242,0.66479 -2.04939,1.38156 -0.61096,1.38156 0.51754,0 1.21592,-0.44485 1.55194,-0.98855 z M 178,117.62244 c 0,-0.20765 0.7875,-0.99515 1.75,-1.75 1.58606,-1.24387 1.62143,-1.2085 0.37756,0.37756 C 178.82119,117.91575 178,118.44548 178,117.62244 Z m 19,-0.44387 c 0,-0.17678 0.70825,-1.02968 1.57389,-1.89532 1.15739,-1.15738 1.26145,-1.76698 0.39324,-2.30357 -1.68847,-1.04353 0.24014,-2.05136 4.81604,-2.5167 3.05919,-0.31111 3.31456,-0.21273 1.44331,0.55599 -2.04073,0.83835 -4.43649,4.70632 -3.70456,5.98103 0.1579,0.275 -0.79493,0.5 -2.11741,0.5 C 198.08203,117.5 197,117.35536 197,117.17857 Z m -49.23155,-1.34702 c 0.5811,-0.5811 1.64682,-0.85979 2.36826,-0.61931 0.74895,0.24965 0.29565,0.70294 -1.05655,1.05655 -1.66335,0.43497 -2.05378,0.30483 -1.31171,-0.43724 z M 142,114.86133 C 142,114.3876 142.72314,114 143.60699,114 c 0.9593,0 1.3925,-0.55895 1.07482,-1.38682 -0.35493,-0.92491 0.0274,-1.24047 1.14802,-0.94743 0.92411,0.24166 2.57794,-0.39449 3.67519,-1.41367 1.91657,-1.78023 5.49498,-3.60509 5.49498,-2.80225 0,0.21288 -1.5778,1.36219 -3.50623,2.55402 -1.93082,1.19331 -3.20935,2.64734 -2.84549,3.23607 0.39053,0.6319 0.18861,0.77731 -0.49377,0.35557 C 147.51953,113.20305 147,113.30606 147,113.82441 c 0,0.51834 -1.125,1.15749 -2.5,1.42034 -1.375,0.26285 -2.5,0.0903 -2.5,-0.38342 z m 46.68817,-0.8101 c 0.91772,-1.07183 2.03316,-1.72346 2.47875,-1.44807 0.4456,0.2754 0.54218,-0.19766 0.21464,-1.05122 -0.73875,-1.92513 0.96899,-2.0394 2.52152,-0.16872 0.88885,1.071 0.78326,1.52316 -0.4678,2.00324 -0.88867,0.34102 -1.978,0.39615 -2.42074,0.12253 -0.44273,-0.27363 -1.063,0.17491 -1.37837,0.99675 -0.31537,0.82184 -1.03312,1.49426 -1.595,1.49426 -0.56188,0 -0.27073,-0.87695 0.647,-1.94877 z M 175.25,114.22704 C 171.40394,113.60117 172.78196,112 177.16667,112 c 2.29166,0 3.97916,0.12734 3.75,0.28297 -0.22917,0.15563 -1.09167,0.7391 -1.91667,1.29659 -0.825,0.55749 -2.5125,0.84886 -3.75,0.64748 z M 100,111.01771 c -2.332941,-1.80833 -2.35427,-1.9005 -0.319175,-1.37923 1.199455,0.30723 2.422835,1.18926 2.718615,1.96006 0.67971,1.7713 0.61479,1.75559 -2.39944,-0.58083 z m -20.266667,-0.1418 c 0.678334,-0.68342 1.485241,-0.99067 1.793128,-0.68278 0.307888,0.30789 -0.247112,0.86705 -1.233333,1.24258 -1.425198,0.54268 -1.540062,0.42782 -0.559795,-0.5598 z M 214.5,110.93153 c -2.75269,-0.63762 -2.64964,-0.70465 1.25,-0.81322 4.23893,-0.118 5.36863,0.29167 3,1.08791 -0.6875,0.23111 -2.6,0.1075 -4.25,-0.27469 z M 98.574622,106.25629 c 0.449084,-1.81174 0.206651,-2.14422 -1.259231,-1.72698 -0.998465,0.2842 -0.01539,-0.36026 2.184609,-1.43213 5.35933,-2.61113 6.28946,-2.55817 3.32486,0.18933 -1.35695,1.25758 -2.2884,2.94508 -2.06989,3.75 0.32613,1.20135 0.22622,1.21933 -0.55779,0.10034 -0.806345,-1.15087 -1.050356,-1.15087 -1.566898,0 -0.336501,0.74973 -0.361548,0.35348 -0.05566,-0.88056 z M 234.75,107.33772 c 0.6875,-0.27741 1.8125,-0.27741 2.5,0 0.6875,0.27741 0.125,0.50439 -1.25,0.50439 -1.375,0 -1.9375,-0.22698 -1.25,-0.50439 z M 156.58798,106 c 0.48477,-0.825 0.88829,-1.8 0.89671,-2.16667 0.008,-0.36666 0.31904,-0.9704 0.69027,-1.34163 0.37124,-0.37123 0.56918,0.0458 0.43988,0.92679 -0.1293,0.88097 -0.83655,2.1597 -1.57167,2.84163 -1.08326,1.00489 -1.16953,0.95559 -0.45519,-0.26012 z M 135,105 c 0.825,-0.53316 2.175,-0.94464 3,-0.9144 0.98906,0.0362 0.81874,0.34772 -0.5,0.9144 -2.74909,1.18132 -4.32797,1.18132 -2.5,0 z m 106,0.0905 c 0.825,-0.46674 2.625,-1.15136 4,-1.52137 2.40213,-0.6464 2.42401,-0.61199 0.55887,0.87904 -1.06762,0.85348 -2.86762,1.5381 -4,1.52137 -1.64431,-0.0243 -1.75684,-0.20128 -0.55887,-0.87904 z m 9.61309,-3.27353 c 0.28881,-0.4673 0.94401,-0.59075 1.45601,-0.27431 1.30838,0.80862 1.16106,1.12396 -0.52511,1.12396 -0.80081,0 -1.21971,-0.38234 -0.9309,-0.84965 z m -104.05548,-0.72381 c -0.29431,-0.47621 0.45267,-1.124142 1.65997,-1.439857 2.8719,-0.751019 3.14584,-0.361409 0.7833,1.114027 -1.04949,0.65541 -2.14896,0.80204 -2.44327,0.32583 z M 162,100.60699 c 0,-0.21616 0.69837,-0.661003 1.55194,-0.988547 0.88992,-0.341496 1.29132,-0.173849 0.94098,0.393007 C 163.90566,100.96166 162,101.4169 162,100.60699 Z m 93.54213,-0.675164 c 0.3631,-0.587495 1.26058,-0.837775 1.99441,-0.556177 0.73384,0.281598 1.52671,-0.02522 1.76195,-0.681826 0.23523,-0.656603 0.81378,-0.831855 1.28564,-0.38945 0.47187,0.442405 0.19598,1.223014 -0.61309,1.734687 -2.03497,1.28696 -5.24256,1.20929 -4.42891,-0.107234 z M 152,99 c 0,-0.55 0.45,-1 1,-1 0.55,0 1,0.45 1,1 0,0.55 -0.45,1 -1,1 -0.55,0 -1,-0.45 -1,-1 z m 113.27361,-2.322218 c 1.52549,-0.713473 2.57604,-1.495349 2.33455,-1.737503 -0.24149,-0.242153 1.09789,-0.454249 2.97639,-0.471324 1.8785,-0.01707 3.41545,0.106563 3.41545,0.274751 0,0.543962 -4.40622,1.985013 -8,2.616395 l -3.5,0.614905 z m 10.37731,-3.728701 c 0.578,-0.578005 2.018,-1.123767 3.2,-1.212804 C 280.03291,91.64724 281,91.315915 281,91 c 0,-0.315915 0.97201,-0.647611 2.16002,-0.737101 1.18802,-0.08949 2.4877,-0.692904 2.8882,-1.34092 0.40049,-0.648015 1.22848,-0.869 1.83998,-0.491077 0.61149,0.377922 1.1118,0.224697 1.1118,-0.3405 0,-0.565198 0.675,-0.768611 1.5,-0.452028 0.825,0.316582 1.5,0.07746 1.5,-0.531385 C 292,86.498145 292.70156,86 293.55902,86 c 0.85746,0 1.34049,-0.353571 1.07342,-0.785714 -0.26708,-0.432143 0.26886,-0.817095 1.19098,-0.855449 0.92212,-0.03835 2.46408,-0.407927 3.42658,-0.821274 1.06536,-0.457521 1.75,-0.318461 1.75,0.355448 0,0.608844 -0.45,1.163239 -1,1.231989 -1.92106,0.240133 -2.51657,0.455059 -4.85742,1.753111 C 292.76056,88.19899 276.59966,94 275.30188,94 c -0.38604,0 -0.22897,-0.472914 0.34904,-1.050919 z M 126,89.606989 c 0,-0.216156 0.69837,-0.661002 1.55194,-0.988546 0.88992,-0.341496 1.29132,-0.173849 0.94098,0.393011 C 127.90566,89.961658 126,90.416902 126,89.606989 Z M 302.5,82 c 0.33992,-0.55 0.81648,-1 1.05902,-1 0.24254,0 0.44098,0.45 0.44098,1 0,0.55 -0.47656,1 -1.05902,1 -0.58246,0 -0.7809,-0.45 -0.44098,-1 z M 145.73333,79.875912 c 0.67834,-0.683418 1.48524,-0.990671 1.79313,-0.682784 0.30789,0.307887 -0.24711,0.867048 -1.23333,1.242579 -1.4252,0.542685 -1.54006,0.427821 -0.5598,-0.559795 z m 16.26516,-7.25237 c 1.37417,-0.802939 2.68667,-1.271711 2.91667,-1.041715 0.62088,0.62088 -0.13014,1.093796 -2.91516,1.835661 l -2.5,0.665942 z m 148.6146,0.193479 c 0.28881,-0.467304 0.94401,-0.590747 1.45601,-0.274316 1.30838,0.808625 1.16106,1.123962 -0.52511,1.123962 -0.80081,0 -1.21971,-0.382341 -0.9309,-0.849646 z M 170.32373,68.869419 C 173.13055,67.251378 178,66.041923 178,66.962817 c 0,1.047464 -2.65667,2.103293 -6.5,2.583268 -2.50007,0.312221 -2.69609,0.199458 -1.17627,-0.676666 z M 180,66.528825 c 0,-1.01455 2.92013,-2.467068 3.39972,-1.691073 0.31778,0.514177 -0.31715,1.168899 -1.41097,1.454938 C 180.89494,66.578729 180,66.68499 180,66.528825 Z"
         id="path851" />
      <path
         style="fill:#9c9c9c"
         d="m 108.48992,117.98369 c -0.34546,-0.55897 -1.11655,-0.71444 -1.71353,-0.34549 -0.66346,0.41004 -0.79636,0.20313 -0.34187,-0.53225 0.56934,-0.92122 1.07409,-0.92873 2.15451,-0.0321 1.41519,1.1745 1.7937,1.92611 0.96999,1.92611 -0.24254,0 -0.72364,-0.45734 -1.0691,-1.01631 z M 168,114 c 0.825,-0.53316 1.95,-0.96937 2.5,-0.96937 0.55,0 0.325,0.43621 -0.5,0.96937 -0.825,0.53316 -1.95,0.96937 -2.5,0.96937 -0.55,0 -0.325,-0.43621 0.5,-0.96937 z m 50.26903,-4.69299 c 0.97297,-0.25354 2.32297,-0.23687 3,0.037 0.67703,0.27393 -0.11903,0.48137 -1.76903,0.46099 -1.65,-0.0204 -2.20394,-0.2445 -1.23097,-0.49804 z m 20.54347,-2.99012 c 0.72187,-0.28887 1.58437,-0.25335 1.91667,0.0789 0.33229,0.3323 -0.25834,0.56864 -1.3125,0.52522 -1.16495,-0.048 -1.4019,-0.28494 -0.60417,-0.60416 z m -96.07917,-4.44098 c 0.67834,-0.68342 1.48524,-0.99067 1.79313,-0.68278 0.30789,0.30789 -0.24711,0.86705 -1.23333,1.24258 -1.4252,0.54268 -1.54006,0.42782 -0.5598,-0.5598 z m 11.75209,-3.852324 C 154.83336,97.460614 156.96648,97 159.22568,97 c 5.0504,0 4.665,0.508513 -1.04927,1.384427 -2.84965,0.43681 -4.10794,0.313797 -3.69099,-0.360841 z m 106.84791,-0.479597 c 0,-0.800807 0.38234,-1.219712 0.84965,-0.930902 0.4673,0.28881 0.59075,0.944015 0.27431,1.456011 -0.80862,1.308382 -1.12396,1.161058 -1.12396,-0.525109 z M 157.8125,74.316886 c 0.72187,-0.288871 1.58437,-0.253344 1.91667,0.07895 0.33229,0.332292 -0.25834,0.568641 -1.3125,0.52522 -1.16495,-0.04798 -1.4019,-0.284941 -0.60417,-0.604167 z M 310,74.622445 c 0,-0.207656 0.7875,-0.995156 1.75,-1.75 1.58606,-1.243871 1.62143,-1.208501 0.37756,0.377555 C 310.82119,74.915748 310,75.445479 310,74.622445 Z"
         id="path849" />
      <path
         style="fill:#8d8d8d"
         d="m 85,135 c 0,-0.55 0.45,-1 1,-1 0.55,0 1,0.45 1,1 0,0.55 -0.45,1 -1,1 -0.55,0 -1,-0.45 -1,-1 z m 2.542705,-1.9309 c -0.316431,-0.512 -0.117988,-1.21356 0.440983,-1.55902 C 88.54266,131.16462 89,131.58352 89,132.44098 c 0,1.75653 -0.600055,2.01516 -1.457295,0.62812 z M 92,129.25765 c 0,-1.16196 3.831527,-4.66304 6.75,-6.16787 1.8246,-0.9408 2.25,-0.89012 2.25,0.26805 0,1.52904 -2.659098,2.97089 -3.976935,2.15642 -0.876455,-0.54167 -3.718986,2.44874 -3.198065,3.36444 0.17875,0.31422 -0.15875,0.73256 -0.75,0.92964 C 92.48375,130.00542 92,129.75761 92,129.25765 Z m 51.56867,-4.47623 c 2.08822,-2.93941 2.96899,-3.33852 3.93133,-1.78142 0.33992,0.55 0.0644,1 -0.61224,1 -0.67665,0 -2.13481,0.7875 -3.24035,1.75 -2.00688,1.74722 -2.007,1.74568 -0.0787,-0.96858 z m -39.93654,-4.34274 c 1.74621,-2.66504 2.81156,-2.75849 1.81409,-0.15913 -0.33047,0.8612 -1.24256,1.81206 -2.02686,2.11302 -1.12984,0.43356 -1.08565,0.0277 0.21277,-1.95389 z m 47.07535,0.75833 c 1.21411,-1.0718 2.00161,-2.15459 1.75,-2.4062 -0.25162,-0.25161 0.21752,-0.45748 1.04252,-0.45748 2.38929,0 1.75576,1.09471 -1.75,3.02393 -3.24082,1.78342 -3.24377,1.78297 -1.04252,-0.16025 z m -19.23447,-0.15334 c 0.32507,-0.52598 1.25163,-0.70283 2.05902,-0.39301 2.06711,0.79323 1.82352,1.34934 -0.59105,1.34934 -1.13246,0 -1.79305,-0.43035 -1.46797,-0.95633 z m 3.4324,-1.79367 c -0.73671,-0.9625 -0.97054,-1.44123 -0.51962,-1.06384 0.45092,0.37738 1.91098,0.27131 3.24457,-0.23572 2.21049,-0.84043 2.33083,-0.74643 1.362,1.06384 -1.30885,2.4456 -2.34953,2.50562 -4.08695,0.23572 z m 63.85082,1.08564 c 0.69093,-0.27855 1.07227,-0.80553 0.84743,-1.17105 -0.22484,-0.36552 1.00986,-0.75711 2.74377,-0.8702 2.9687,-0.19362 3.03936,-0.12072 1.21144,1.25 -1.06762,0.80059 -2.86762,1.42008 -4,1.37666 -1.13238,-0.0434 -1.49357,-0.30685 -0.80264,-0.58541 z M 109,116.96862 C 109,116.43588 109.675,116 110.5,116 c 0.825,0 1.5,0.17686 1.5,0.39301 0,0.21616 -0.675,0.65203 -1.5,0.96862 -0.825,0.31658 -1.5,0.13972 -1.5,-0.39301 z m 32.34508,-0.51175 c -0.32569,-0.84872 -0.36872,-1.76657 -0.0956,-2.03966 0.27309,-0.2731 0.73656,0.42131 1.02992,1.54313 0.62315,2.38293 -0.0692,2.75089 -0.9343,0.49653 z M 73,116.60699 c 0,-0.21616 0.698372,-0.661 1.551938,-0.98855 0.889925,-0.34149 1.291322,-0.17385 0.940983,0.39301 C 74.905663,116.96166 73,117.4169 73,116.60699 Z m 71.09671,-0.52606 c -1.01176,-0.64056 -0.68977,-0.84554 1.15404,-0.73469 1.40653,0.0846 2.34896,0.49126 2.09427,0.90376 -0.60193,0.97493 -1.51657,0.92732 -3.24831,-0.16907 z M 158,113.9512 c 3.4686,-2.35442 5.44393,-3.03957 3,-1.04055 -1.375,1.12468 -2.95,2.04799 -3.5,2.0518 -0.55,0.004 -0.325,-0.45125 0.5,-1.01125 z m 44.0318,0.35782 c -0.0175,-0.65504 0.46624,-1.49879 1.07496,-1.875 0.77153,-0.47683 0.69581,-0.94441 -0.25,-1.54371 -0.90786,-0.57524 -0.96271,-0.86475 -0.16578,-0.875 1.9721,-0.0254 2.33271,1.57411 0.80879,3.58737 -0.78989,1.04353 -1.45047,1.36138 -1.46797,0.70634 z m -48.26335,-1.47747 c 0.5811,-0.5811 1.64682,-0.85979 2.36826,-0.61931 0.74895,0.24965 0.29565,0.70294 -1.05655,1.05655 -1.66335,0.43497 -2.05378,0.30483 -1.31171,-0.43724 z m -51.30957,-0.89808 c -1.02606,-1.66021 -0.10511,-1.89043 1.33055,-0.33261 0.70918,0.76953 0.84824,1.39914 0.30901,1.39914 -0.53922,0 -1.27702,-0.47994 -1.63956,-1.06653 z M 184,112 c 1.95837,-1.2656 3.28218,-1.2656 2.5,0 -0.33992,0.55 -1.37898,0.99311 -2.30902,0.98469 C 182.73371,112.97149 182.70731,112.8354 184,112 Z M 83,111 c 0,-0.55 0.476558,-1 1.059017,-1 0.582459,0 0.780902,0.45 0.440983,1 -0.339919,0.55 -0.816476,1 -1.059017,1 C 83.198442,112 83,111.55 83,111 Z m 82.5,-2 c 0.33992,-0.55 0.81648,-1 1.05902,-1 0.24254,0 0.44098,0.45 0.44098,1 0,0.55 -0.47656,1 -1.05902,1 -0.58246,0 -0.7809,-0.45 -0.44098,-1 z m 3.0841,-1.35856 C 168.93053,106.73865 169.91583,106 170.77366,106 c 0.85782,0 1.37217,0.12734 1.14301,0.28297 -0.22917,0.15563 -1.21447,0.89428 -2.18956,1.64144 -1.54348,1.18269 -1.69139,1.14607 -1.14301,-0.28297 z m 62.2284,0.67545 c 0.72187,-0.28887 1.58437,-0.25335 1.91667,0.0789 0.33229,0.3323 -0.25834,0.56864 -1.3125,0.52522 -1.16495,-0.048 -1.4019,-0.28494 -0.60417,-0.60416 z M 128,107 c 0,-0.55 0.70156,-1 1.55902,-1 0.85746,0 1.2809,0.45 0.94098,1 -0.33992,0.55 -1.04148,1 -1.55902,1 C 128.42344,108 128,107.55 128,107 Z m 10,-4 c 1.95837,-1.2656 3.28218,-1.2656 2.5,0 -0.33992,0.55 -1.37898,0.99311 -2.30902,0.98469 C 136.73371,103.97149 136.70731,103.8354 138,103 Z m 21,-0.059 c 0,-0.58246 0.45,-0.7809 1,-0.44098 0.55,0.33992 1,0.81648 1,1.05902 0,0.24254 -0.45,0.44098 -1,0.44098 -0.55,0 -1,-0.47656 -1,-1.05902 z m -14,-2 c 0,-0.58246 0.45,-0.7809 1,-0.44098 0.55,0.33992 1,0.81648 1,1.05902 0,0.24254 -0.45,0.44098 -1,0.44098 -0.55,0 -1,-0.47656 -1,-1.05902 z m 2,-1.999997 c 0,-0.582459 0.45,-0.780902 1,-0.440983 0.55,0.339919 1,0.816476 1,1.059017 C 149,99.801558 148.55,100 148,100 c -0.55,0 -1,-0.476558 -1,-1.059017 z m 15,0.666006 c 0,-0.216156 0.69837,-0.661002 1.55194,-0.988546 0.88992,-0.341496 1.29132,-0.173849 0.94098,0.393011 C 163.90566,99.961658 162,100.4169 162,99.606989 Z m -43,-7.547972 c 0,-0.517541 0.44485,-1.215913 0.98855,-1.551938 0.56686,-0.350339 0.7345,0.05106 0.39301,0.940983 C 119.71677,93.180479 119,93.497449 119,92.059017 Z m 6,-2.467957 c 0,-0.190394 0.675,-0.906371 1.5,-1.59106 0.86459,-0.717549 1.5,-0.814738 1.5,-0.229434 0,0.558501 -0.675,1.274478 -1.5,1.59106 -0.825,0.316583 -1.5,0.419828 -1.5,0.229434 z m 8,-4.984071 c 0,-0.216156 0.69837,-0.661002 1.55194,-0.988546 0.88992,-0.341496 1.29132,-0.173849 0.94098,0.393011 C 134.90566,84.961658 133,85.416902 133,84.606989 Z"
         id="path847" />
      <path
         style="fill:#8b8b8b"
         d="m 95.8125,126.31689 c 0.721875,-0.28887 1.584375,-0.25335 1.916667,0.0789 0.332291,0.3323 -0.258334,0.56864 -1.3125,0.52522 -1.164943,-0.048 -1.4019,-0.28494 -0.604167,-0.60416 z m 27.26309,-1.044 c 0.74716,-0.97509 1.48581,-1.96039 1.64144,-2.18956 0.15563,-0.22916 0.28297,0.28519 0.28297,1.14301 0,0.85783 -0.73865,1.84313 -1.64144,2.18956 -1.42904,0.54838 -1.46566,0.40047 -0.28297,-1.14301 z m 23.73691,-3.956 c 0.72187,-0.28887 1.58437,-0.25335 1.91667,0.0789 0.33229,0.3323 -0.25834,0.56864 -1.3125,0.52522 -1.16495,-0.048 -1.4019,-0.28494 -0.60417,-0.60416 z M 175,118 c 0,-0.55 0.45,-1 1,-1 0.55,0 1,0.45 1,1 0,0.55 -0.45,1 -1,1 -0.55,0 -1,-0.45 -1,-1 z m -71,-3 c 0,-0.55 0.45,-1 1,-1 0.55,0 1,0.45 1,1 0,0.55 -0.45,1 -1,1 -0.55,0 -1,-0.45 -1,-1 z m -1.43571,-4.70687 c -0.54268,-1.4252 -0.42782,-1.54006 0.5598,-0.5598 0.68342,0.67834 0.99067,1.48524 0.68278,1.79313 -0.30789,0.30789 -0.86705,-0.24711 -1.24258,-1.23333 z m 76.24821,1.02376 c 0.72187,-0.28887 1.58437,-0.25335 1.91667,0.0789 0.33229,0.3323 -0.25834,0.56864 -1.3125,0.52522 -1.16495,-0.048 -1.4019,-0.28494 -0.60417,-0.60416 z m 35.80059,-2.49987 c 0.28881,-0.4673 0.94401,-0.59075 1.45601,-0.27431 1.30838,0.80862 1.16106,1.12396 -0.52511,1.12396 -0.80081,0 -1.21971,-0.38234 -0.9309,-0.84965 z M 232,106.94098 c 0,-0.58246 0.45,-0.7809 1,-0.44098 0.55,0.33992 1,0.81648 1,1.05902 0,0.24254 -0.45,0.44098 -1,0.44098 -0.55,0 -1,-0.47656 -1,-1.05902 z m -100.66667,-1.39699 c 0,-0.80081 0.38234,-1.21971 0.84965,-0.9309 0.4673,0.28881 0.59075,0.94401 0.27431,1.45601 -0.80862,1.30838 -1.12396,1.16106 -1.12396,-0.52511 z M 155.5,105 c 0.33992,-0.55 0.81648,-1 1.05902,-1 0.24254,0 0.44098,0.45 0.44098,1 0,0.55 -0.47656,1 -1.05902,1 -0.58246,0 -0.7809,-0.45 -0.44098,-1 z M 141,101.44098 c 0,-0.85746 0.45734,-1.27636 1.01631,-0.9309 0.55897,0.34546 0.75742,1.04702 0.44098,1.55902 C 141.60006,103.45614 141,103.19751 141,101.44098 Z m 20.75,-4.130306 C 160.7875,97.059147 160,96.478476 160,96.020295 c 0,-0.45818 0.9,-0.5977 2,-0.310044 1.1,0.287656 2,0.920528 2,1.40638 0,0.485853 -0.1125,0.831168 -0.25,0.767368 -0.1375,-0.0638 -1.0375,-0.321797 -2,-0.573325 z"
         id="path845" />
      <path
         style="fill:#767676"
         d="m 83.5,136 c 0.339919,-0.55 0.816476,-1 1.059017,-1 C 84.801558,135 85,135.45 85,136 c 0,0.55 -0.476558,1 -1.059017,1 -0.582459,0 -0.780902,-0.45 -0.440983,-1 z m 5.5,-4 c 0,-0.55 0.476558,-1 1.059017,-1 0.582459,0 0.780902,0.45 0.440983,1 -0.339919,0.55 -0.816476,1 -1.059017,1 C 89.198442,133 89,132.55 89,132 Z m 37,-7.39301 c 0,-0.21616 0.69837,-0.661 1.55194,-0.98855 0.88992,-0.34149 1.29132,-0.17385 0.94098,0.39301 C 127.90566,124.96166 126,125.4169 126,124.60699 Z m -25,-1.83333 c 0,-0.85783 0.73865,-1.84313 1.64144,-2.18956 1.42904,-0.54838 1.46566,-0.40047 0.28297,1.14301 -0.74716,0.97509 -1.48581,1.96039 -1.64144,2.18956 C 101.12734,124.14583 101,123.63148 101,122.77366 Z M 66.599578,119.6011 c 0.247468,-0.64489 1.305761,-1.17253 2.351763,-1.17253 2.327479,0 1.791529,1.1439 -0.860939,1.83754 -1.225221,0.3204 -1.774876,0.0752 -1.490824,-0.66501 z m 39.626612,-0.17982 c 0.94941,-0.99123 1.94144,-1.58698 2.20452,-1.3239 0.26308,0.26308 -0.5137,1.07408 -1.72619,1.80223 -2.10631,1.26492 -2.12762,1.24361 -0.47833,-0.47833 z M 133,120.61663 c 0,-0.21085 0.90062,-0.61888 2.00138,-0.90674 1.10076,-0.28785 1.7492,-0.11534 1.44098,0.38337 C 135.90411,120.96417 133,121.4057 133,120.61663 Z m 16,-1.00964 c 0,-0.21616 0.69837,-0.661 1.55194,-0.98855 0.88992,-0.34149 1.29132,-0.17385 0.94098,0.39301 C 150.90566,119.96166 149,120.4169 149,119.60699 Z m 50.73333,-0.73108 c 0.67834,-0.68342 1.48524,-0.99067 1.79313,-0.68278 0.30789,0.30789 -0.24711,0.86705 -1.23333,1.24258 -1.4252,0.54268 -1.54006,0.42782 -0.5598,-0.5598 z M 139,118.46446 c 0,-0.70923 8.8383,-4.48014 10.33291,-4.40859 0.6419,0.0307 -0.70806,0.81823 -2.99991,1.75 -2.29184,0.93177 -4.50434,2.03163 -4.91666,2.44413 C 140.55107,119.11565 139,119.25331 139,118.46446 Z m 16.08333,0.17099 c 0.22917,-0.2005 1.54167,-0.90032 2.91667,-1.55516 2.35727,-1.12265 2.38918,-1.10183 0.55887,0.36454 -1.593,1.27626 -4.84786,2.39128 -3.47554,1.19062 z M 178,116 c 0,-0.55 0.47656,-1 1.05902,-1 0.58246,0 0.7809,0.45 0.44098,1 -0.33992,0.55 -0.81648,1 -1.05902,1 C 178.19844,117 178,116.55 178,116 Z m 12.5,-1 c 3.90115,-2.58363 5.51168,-2.58363 2.22713,0 -1.39842,1.1 -3.14661,1.99703 -3.88486,1.99341 -0.73825,-0.004 0.008,-0.90066 1.65773,-1.99341 z m 19.83333,0.70431 c 0,-0.71262 1.07471,-1.38463 2.38824,-1.49334 1.39155,-0.11517 2.12782,0.22371 1.76423,0.812 -0.3432,0.55531 -1.0429,0.75076 -1.5549,0.43432 -0.51199,-0.31643 -0.9309,-0.0988 -0.9309,0.48369 0,0.58246 -0.375,1.05902 -0.83333,1.05902 -0.45834,0 -0.83334,-0.58306 -0.83334,-1.29569 z M 112,115 c 0.825,-0.53316 1.95,-0.96937 2.5,-0.96937 0.55,0 0.325,0.43621 -0.5,0.96937 -0.825,0.53316 -1.95,0.96937 -2.5,0.96937 -0.55,0 -0.325,-0.43621 0.5,-0.96937 z m 51.76845,-0.16845 c 0.5811,-0.5811 1.64682,-0.85979 2.36826,-0.61931 0.74895,0.24965 0.29565,0.70294 -1.05655,1.05655 -1.66335,0.43497 -2.05378,0.30483 -1.31171,-0.43724 z M 74.8125,114.31689 c 0.721875,-0.28887 1.584375,-0.25335 1.916667,0.0789 0.332291,0.3323 -0.258334,0.56864 -1.3125,0.52522 -1.164943,-0.048 -1.4019,-0.28494 -0.604167,-0.60416 z M 79,112.96862 C 79,112.43588 79.675,112 80.5,112 c 0.825,0 1.5,0.17686 1.5,0.39301 0,0.21616 -0.675,0.65203 -1.5,0.96862 -0.825,0.31658 -1.5,0.13972 -1.5,-0.39301 z M 118.35714,111.5 c 0.825,-0.825 2.06815,-1.5 2.76256,-1.5 0.70863,0 0.41091,0.64416 -0.67857,1.4682 -2.5471,1.92652 -4.0009,1.94871 -2.08399,0.0318 z m 100.08781,0.41093 c -0.30964,-0.50101 0.0261,-0.94437 0.74603,-0.98524 0.71996,-0.0409 2.43402,-0.26007 3.80902,-0.48711 2.34609,-0.38739 2.37687,-0.33902 0.5,0.78554 -2.62706,1.57405 -4.3611,1.80965 -5.05505,0.68681 z M 156,111 c 0,-0.55 0.70156,-1 1.55902,-1 0.85746,0 1.2809,0.45 0.94098,1 -0.33992,0.55 -1.04148,1 -1.55902,1 C 156.42344,112 156,111.55 156,111 Z m 30.75,-0.66228 c 0.6875,-0.27741 1.8125,-0.27741 2.5,0 0.6875,0.27741 0.125,0.50439 -1.25,0.50439 -1.375,0 -1.9375,-0.22698 -1.25,-0.50439 z M 99,108.44098 c 0,-0.85746 0.45734,-1.27636 1.01631,-0.9309 0.55897,0.34546 0.75742,1.04702 0.44098,1.55902 C 99.600055,110.45614 99,110.19751 99,108.44098 Z m 25,1.31644 c 0,-0.17211 0.9,-1.08354 2,-2.02539 1.1,-0.94185 2,-1.28269 2,-0.75743 0,0.52527 -0.9,1.4367 -2,2.0254 -1.1,0.5887 -2,0.92954 -2,0.75742 z M 89,107 c 0,-0.55 0.476558,-1 1.059017,-1 0.582459,0 0.780902,0.45 0.440983,1 -0.339919,0.55 -0.816476,1 -1.059017,1 C 89.198442,108 89,107.55 89,107 Z m 64.73333,-0.12409 c 0.67834,-0.68342 1.48524,-0.99067 1.79313,-0.68278 0.30789,0.30789 -0.24711,0.86705 -1.23333,1.24258 -1.4252,0.54268 -1.54006,0.42782 -0.5598,-0.5598 z M 105,98.968615 C 105,98.435877 105.675,98 106.5,98 c 0.825,0 1.5,0.176855 1.5,0.393011 0,0.216156 -0.675,0.652033 -1.5,0.968615 -0.825,0.316583 -1.5,0.139728 -1.5,-0.393011 z m 150.73333,-0.0927 c 0.67834,-0.683418 1.48524,-0.990671 1.79313,-0.682784 0.30789,0.307887 -0.24711,0.867048 -1.23333,1.242579 -1.4252,0.542685 -1.54006,0.427821 -0.5598,-0.559795 z M 148.8125,98.316886 c 0.72187,-0.288871 1.58437,-0.253344 1.91667,0.07895 0.33229,0.332292 -0.25834,0.568641 -1.3125,0.52522 -1.16495,-0.04798 -1.4019,-0.284941 -0.60417,-0.604167 z m -38.58606,-2.30786 c 0.69819,-1.117993 1.82097,-1.821074 2.49506,-1.562403 0.67408,0.25867 1.57501,-0.0735 2.00205,-0.738156 1.41422,-2.201091 5.10735,-3.791088 5.8846,-2.53348 0.42972,0.695303 0.25422,0.857985 -0.45364,0.420505 C 119.51953,91.203052 119,91.311362 119,91.836179 c 0,0.524816 -2.25968,2.135766 -5.02151,3.579887 -4.57933,2.394469 -4.90972,2.446683 -3.75205,0.59296 z M 128,87 c 0,-0.55 0.47656,-1 1.05902,-1 0.58246,0 0.7809,0.45 0.44098,1 -0.33992,0.55 -0.81648,1 -1.05902,1 C 128.19844,88 128,87.55 128,87 Z m 7.33333,-3.554014 C 135.33333,82.650694 136.15833,82 137.16667,82 138.175,82 139,82.209167 139,82.464816 c 0,0.255649 -0.825,0.906343 -1.83333,1.445987 -1.38489,0.741171 -1.83334,0.627475 -1.83334,-0.464817 z m 164.47917,-1.1291 c 0.72187,-0.288871 1.58438,-0.253344 1.91667,0.07895 0.33229,0.332292 -0.25834,0.568641 -1.3125,0.52522 -1.16495,-0.04798 -1.4019,-0.284941 -0.60417,-0.604167 z M 142.35714,79.5 c 0.825,-0.825 2.29315,-1.5 3.26256,-1.5 1.60233,0 1.58609,0.133472 -0.17857,1.468197 -2.69021,2.034774 -5.11193,2.059748 -3.08399,0.0318 z M 305.43257,79.109104 C 306.14603,77.954709 310,75.626427 310,76.349806 c 0,0.231096 -1.18041,1.193606 -2.62312,2.138911 -1.44272,0.945305 -2.31766,1.224479 -1.94431,0.620387 z M 150.27103,76.908131 c 0.97407,-0.567079 1.56775,-1.359981 1.31928,-1.762006 -0.24846,-0.402024 0.41707,-0.7964 1.47897,-0.87639 1.0619,-0.07999 1.93072,0.351596 1.93072,0.959081 0,0.607484 -0.27857,0.825946 -0.61905,0.48547 -0.34047,-0.340476 -1.27262,0.03452 -2.07143,0.833333 -0.79881,0.79881 -1.98273,1.438697 -2.63095,1.421972 -0.64821,-0.01672 -0.38161,-0.494382 0.59246,-1.06146 z m 9.89564,-5.241464 c 0.68503,-0.733334 1.82063,-1.333334 2.52355,-1.333334 0.95164,0 0.99543,0.340511 0.17146,1.333334 C 162.25307,72.4 161.11747,73 160.33813,73 c -1.13691,0 -1.1708,-0.263537 -0.17146,-1.333333 z"
         id="path843" />
      <path
         style="fill:#5f5f5f"
         d="m 205.56638,118.10222 c -1.23619,-0.4841 -1.53163,-1.00566 -0.8191,-1.44603 0.61299,-0.37885 1.40171,-0.22413 1.75272,0.34381 0.35101,0.56794 1.12663,0.73075 1.72361,0.3618 0.64782,-0.40038 0.79775,-0.20538 0.37188,0.48369 -0.39244,0.63498 -0.79947,1.12288 -0.90451,1.08422 -0.10504,-0.0387 -1.06111,-0.41103 -2.1246,-0.82749 z M 69.998493,116.54639 c 2.674151,-1.47995 3.608594,-1.3377 2.542626,0.38708 -0.362534,0.58659 -1.645095,1.05058 -2.850136,1.03109 -2.112922,-0.0342 -2.101966,-0.0847 0.30751,-1.41817 z m 38.227697,-0.12511 c 0.94941,-0.99123 1.94144,-1.58698 2.20452,-1.3239 0.26308,0.26308 -0.5137,1.07408 -1.72619,1.80223 -2.10631,1.26492 -2.12762,1.24361 -0.47833,-0.47833 z M 174,117.59106 c 0,-0.19039 0.675,-0.90637 1.5,-1.59106 0.86459,-0.71755 1.5,-0.81474 1.5,-0.22943 0,0.5585 -0.675,1.27447 -1.5,1.59106 -0.825,0.31658 -1.5,0.41982 -1.5,0.22943 z M 76.5,114 c -0.339919,-0.55 0.110081,-1 1,-1 0.889919,0 1.339919,0.45 1,1 -0.339919,0.55 -0.789919,1 -1,1 -0.210081,0 -0.660081,-0.45 -1,-1 z m 73.66547,0.12342 c -1.02114,-0.64728 -0.86258,-0.96936 0.67518,-1.3715 1.42991,-0.37393 1.85618,-0.12545 1.47754,0.86126 -0.62171,1.62015 -0.46163,1.58221 -2.15272,0.51024 z m 29.08453,0.18725 c 0.9625,-0.25152 1.75,-0.80209 1.75,-1.22348 0,-0.42139 1.2375,-1.30983 2.75,-1.97431 l 2.75,-1.20815 -3,2.51167 c -1.65,1.38142 -3.675,2.47566 -4.5,2.43164 -1.04684,-0.0559 -0.97131,-0.2182 0.25,-0.53737 z m 36.31429,-0.6038 c 0.37553,-0.98622 0.93469,-1.54122 1.24258,-1.23333 0.30789,0.30789 6.4e-4,1.11479 -0.68278,1.79313 -0.98762,0.98026 -1.10248,0.8654 -0.5598,-0.5598 z M 114.25,113.31067 c 0.9625,-0.25152 1.75,-0.87432 1.75,-1.38399 C 116,111.417 116.70714,111 117.57143,111 c 1.39682,0 1.40476,0.16667 0.0714,1.5 -0.825,0.825 -2.31965,1.4478 -3.32143,1.384 -1.67285,-0.10654 -1.67868,-0.15331 -0.0714,-0.57333 z M 104.5,112 c -0.33992,-0.55 -0.14148,-1 0.44098,-1 0.58246,0 1.05902,0.45 1.05902,1 0,0.55 -0.19844,1 -0.44098,1 -0.24254,0 -0.7191,-0.45 -1.05902,-1 z m 101.23333,-0.12409 c 0.67834,-0.68342 1.48524,-0.99067 1.79313,-0.68278 0.30789,0.30789 -0.24711,0.86705 -1.23333,1.24258 -1.4252,0.54268 -1.54006,0.42782 -0.5598,-0.5598 z M 174.75,111.33772 c 0.6875,-0.27741 1.8125,-0.27741 2.5,0 0.6875,0.27741 0.125,0.50439 -1.25,0.50439 -1.375,0 -1.9375,-0.22698 -1.25,-0.50439 z m -90.035999,-0.95705 c -0.788367,-0.78837 2.020778,-3.6519 3.150039,-3.21103 0.4654,0.1817 0.08625,1.11773 -0.842546,2.08008 -0.928801,0.96234 -1.967173,1.47127 -2.307493,1.13095 z m 136.850289,-1.08754 c -0.54268,-1.4252 -0.42782,-1.54006 0.5598,-0.5598 0.68342,0.67834 0.99067,1.48524 0.68278,1.79313 -0.30789,0.30789 -0.86705,-0.24711 -1.24258,-1.23333 z M 122,108.5 c 3.42322,-1.95689 6.01802,-1.98087 3.44113,-0.0318 -1.06762,0.8075 -2.84113,1.46656 -3.94113,1.46456 -1.76792,-0.003 -1.7099,-0.16947 0.5,-1.43276 z m 26.08333,1.21703 c 0.22917,-0.15563 1.31667,-0.94313 2.41667,-1.75 1.85001,-1.35701 1.89707,-1.33579 0.62756,0.28297 -0.75485,0.9625 -1.84235,1.75 -2.41667,1.75 -0.57432,0 -0.85672,-0.12734 -0.62756,-0.28297 z M 160,109 c 0.825,-0.53316 1.95,-0.96937 2.5,-0.96937 0.55,0 0.325,0.43621 -0.5,0.96937 -0.825,0.53316 -1.95,0.96937 -2.5,0.96937 -0.55,0 -0.325,-0.43621 0.5,-0.96937 z m 27.8125,0.31689 c 0.72187,-0.28887 1.58437,-0.25335 1.91667,0.0789 0.33229,0.3323 -0.25834,0.56864 -1.3125,0.52522 -1.16495,-0.048 -1.4019,-0.28494 -0.60417,-0.60416 z M 191,109 c 0,-0.55 0.42344,-1 0.94098,-1 0.51754,0 1.2191,0.45 1.55902,1 0.33992,0.55 -0.0835,1 -0.94098,1 C 191.70156,110 191,109.55 191,109 Z m 21.5,0 c 0.33992,-0.55 1.06803,-1 1.61803,-1 0.55,0 0.72189,0.45 0.38197,1 -0.33992,0.55 -1.06803,1 -1.61803,1 -0.55,0 -0.72189,-0.45 -0.38197,-1 z m 12.5,0 c 1.93876,-1.25292 3,-1.25292 3,0 0,0.55 -1.0125,0.99311 -2.25,0.98469 C 223.93056,109.9723 223.78704,109.78387 225,109 Z m -8.25,-0.66228 c 0.6875,-0.27741 1.8125,-0.27741 2.5,0 0.6875,0.27741 0.125,0.50439 -1.25,0.50439 -1.375,0 -1.9375,-0.22698 -1.25,-0.50439 z M 91,106.114 c 0,-0.82171 5.023366,-3.42397 5.564669,-2.88266 0.16842,0.16842 -1.014732,1.06433 -2.629226,1.99093 C 92.320949,106.14886 91,106.55014 91,106.114 Z m 40.86481,-1.65314 c 1.85065,-0.80347 3.87565,-1.44325 4.5,-1.42172 0.62435,0.0215 -0.37897,0.69653 -2.22962,1.5 -1.85065,0.80347 -3.87565,1.44325 -4.5,1.42172 -0.62435,-0.0215 0.37897,-0.69653 2.22962,-1.5 z M 171.5,105 c 0.33992,-0.55 0.81648,-1 1.05902,-1 0.24254,0 0.44098,0.45 0.44098,1 0,0.55 -0.47656,1 -1.05902,1 -0.58246,0 -0.7809,-0.45 -0.44098,-1 z m 66,0 c 0.33992,-0.55 1.37898,-0.99311 2.30902,-0.98469 1.45727,0.0132 1.48367,0.14929 0.19098,0.98469 -1.95837,1.2656 -3.28218,1.2656 -2.5,0 z m 11,-3.9826 c 2.2,-1.080723 4.675,-1.959139 5.5,-1.952034 1.68362,0.0145 -3.3143,2.348824 -7.06457,3.299574 -1.33949,0.33958 -0.63543,-0.26681 1.56457,-1.34754 z m -147.6875,0.29949 c 0.72187,-0.28887 1.58437,-0.25335 1.91667,0.0789 0.33229,0.3323 -0.25834,0.56864 -1.3125,0.52522 -1.16495,-0.048 -1.4019,-0.28494 -0.60417,-0.60416 z M 143,100 c 0.825,-0.533156 2.175,-0.944637 3,-0.914402 0.98906,0.03625 0.81874,0.34772 -0.5,0.914402 -2.74909,1.18132 -4.32797,1.18132 -2.5,0 z m 7.08333,-2.359324 C 150.3125,97.443048 151.85,96.979379 153.5,96.6103 c 2.19092,-0.490074 2.59546,-0.397296 1.5,0.34401 -1.35037,0.913808 -5.92015,1.551749 -4.91667,0.686366 z M 262,96.606989 c 0,-0.216156 0.69837,-0.661002 1.55194,-0.988546 0.88992,-0.341496 1.29132,-0.173849 0.94098,0.393011 C 263.90566,96.961658 262,97.416902 262,96.606989 Z m 12.73333,-4.731077 c 0.67834,-0.683418 1.48524,-0.990671 1.79313,-0.682784 0.30789,0.307887 -0.24711,0.867048 -1.23333,1.242579 -1.4252,0.542685 -1.54006,0.427821 -0.5598,-0.559795 z m -153.16904,-2.16904 c 0.37553,-0.986221 0.93469,-1.541221 1.24258,-1.233333 0.30789,0.307887 6.4e-4,1.114794 -0.68278,1.793128 -0.98762,0.980267 -1.10248,0.865403 -0.5598,-0.559795 z m 2.62618,-0.787764 C 124.44891,88.138599 125.97427,86.825 127.58018,86 c 1.6059,-0.825 3.20107,-1.885543 3.54482,-2.356763 0.86114,-1.180473 2.14828,1.105568 1.34986,2.39744 -0.35375,0.572373 -1.41773,0.794842 -2.36442,0.494376 -0.99533,-0.315905 -2.70571,0.370869 -4.05554,1.62843 -1.33251,1.24142 -2.13265,1.565705 -1.86443,0.755625 z m 158.54286,-0.0432 c 0.67834,-0.683418 1.48524,-0.990671 1.79313,-0.682784 0.30789,0.307887 -0.24711,0.867048 -1.23333,1.242579 -1.4252,0.542685 -1.54006,0.427821 -0.5598,-0.559795 z M 139,81.618034 c 0,-0.825 0.45,-1.778115 1,-2.118034 0.55,-0.339919 1,0.05697 1,0.881966 0,0.825 -0.45,1.778115 -1,2.118034 -0.55,0.339919 -1,-0.05697 -1,-0.881966 z m 7,-3.727679 c -1.26612,-0.910777 -1.22714,-0.991244 0.25,-0.516072 0.9625,0.309621 1.75285,0.239571 1.75632,-0.155668 0.003,-0.395238 1.46598,-1.536102 3.25,-2.535253 l 3.24368,-1.816638 -3.31172,3.066638 c -1.82144,1.686651 -3.39644,3.059747 -3.5,3.051325 C 147.58473,78.976265 146.825,78.483816 146,77.890355 Z m 12.07895,-5.473688 c 0.048,-1.164943 0.28494,-1.4019 0.60416,-0.604167 0.28887,0.721875 0.25335,1.584375 -0.0789,1.916667 -0.3323,0.332291 -0.56864,-0.258334 -0.52522,-1.3125 z M 172.25674,67 c 0.22494,-0.825 1.2717,-1.604565 2.32613,-1.732366 1.34704,-0.163268 1.47108,-0.04434 0.41713,0.399944 -0.825,0.347771 -1.87176,1.127335 -2.32613,1.732366 -0.53136,0.707539 -0.6802,0.564832 -0.41713,-0.399944 z m 5.43209,-1.694469 c -0.37254,-0.602779 -0.0193,-1.348461 0.78489,-1.657072 0.80423,-0.308611 1.77117,-0.06124 2.14876,0.549723 0.39615,0.640983 0.23434,0.831361 -0.38256,0.450096 -0.58801,-0.363407 -1.25015,-0.1176 -1.47143,0.546237 -0.28266,0.847993 -0.60378,0.881011 -1.07966,0.111016 z"
         id="path841" />
      <path
         style="fill:#272727"
         d="m 206.49563,116.99294 c -0.6946,-1.12389 2.23393,-2.59671 3.21416,-1.61648 0.34295,0.34295 -0.15301,0.62354 -1.10214,0.62354 -0.94913,0 -1.44757,0.45 -1.10765,1 0.33992,0.55 0.39303,1 0.11803,1 -0.275,0 -0.78008,-0.45318 -1.1224,-1.00706 z M 195,112.60699 c 0,-0.21616 0.69837,-0.661 1.55194,-0.98855 0.88992,-0.34149 1.29132,-0.17385 0.94098,0.39301 C 196.90566,112.96166 195,113.4169 195,112.60699 Z M 102,100 c 0.825,-0.533156 1.95,-0.969374 2.5,-0.969374 0.55,0 0.325,0.436218 -0.5,0.969374 -0.825,0.53316 -1.95,0.96937 -2.5,0.96937 -0.55,0 -0.325,-0.43621 0.5,-0.96937 z m 5,-2.71322 c 0.825,-0.305429 2.175,-1.057403 3,-1.671053 1.30346,-0.969534 1.32017,-0.886426 0.12756,0.634273 -0.75485,0.9625 -2.10485,1.714474 -3,1.671053 C 105.76611,97.855013 105.74525,97.751309 107,97.28678 Z m 47.54327,-23.216764 c -0.28643,-0.46345 0.37416,-1.076667 1.46798,-1.362706 C 157.10506,72.421271 158,72.546965 158,72.986631 c 0,1.174928 -2.84841,2.067659 -3.45673,1.083385 z m 9.46497,-4.064923 c -0.69381,-0.428801 0.14854,-0.986449 2.07082,-1.370905 4.00322,-0.800643 4.50262,-0.456491 1.43699,0.990256 -1.28604,0.606913 -2.86455,0.778204 -3.50781,0.380649 z m 15.80972,-6.223051 c 0.53328,-0.533281 1.8049,-0.792548 2.82582,-0.576149 1.37482,0.291413 1.12336,0.542875 -0.9696,0.969603 -1.82482,0.372058 -2.48236,0.232683 -1.85622,-0.393454 z"
         id="path839" />
    </g>
  </g>
</svg>
