<?xml version="1.0" encoding="UTF-8" standalone="no"?>
<svg
   xmlns:dc="http://purl.org/dc/elements/1.1/"
   xmlns:cc="http://creativecommons.org/ns#"
   xmlns:rdf="http://www.w3.org/1999/02/22-rdf-syntax-ns#"
   xmlns:svg="http://www.w3.org/2000/svg"
   xmlns="http://www.w3.org/2000/svg"
   xmlns:sodipodi="http://sodipodi.sourceforge.net/DTD/sodipodi-0.dtd"
   xmlns:inkscape="http://www.inkscape.org/namespaces/inkscape"
   inkscape:version="1.0 (4035a4fb49, 2020-05-01)"
   sodipodi:docname="logo-orig.svg"
   viewBox="0 0 256 256"
   height="256"
   width="256"
   xml:space="preserve"
   id="svg2"
   version="1.1"><metadata
     id="metadata8"><rdf:RDF><cc:Work
         rdf:about=""><dc:format>image/svg+xml</dc:format><dc:type
           rdf:resource="http://purl.org/dc/dcmitype/StillImage" /><dc:title></dc:title></cc:Work></rdf:RDF></metadata><defs
     id="defs6" /><sodipodi:namedview
     inkscape:current-layer="g10"
     inkscape:window-maximized="1"
     inkscape:window-y="0"
     inkscape:window-x="0"
     inkscape:cy="137.17926"
     inkscape:cx="56.811662"
     inkscape:zoom="1.1025"
     showgrid="false"
     id="namedview4"
     inkscape:window-height="1025"
     inkscape:window-width="1920"
     inkscape:pageshadow="2"
     inkscape:pageopacity="0"
     guidetolerance="10"
     gridtolerance="10"
     objecttolerance="10"
     borderopacity="1"
     bordercolor="#666666"
     pagecolor="#ffffff" /><g
     transform="matrix(1.3333333,0,0,-1.3333333,0,666.66667)"
     inkscape:label="ink_ext_XXXXXX"
     inkscape:groupmode="layer"
     id="g10"><path
       d="m 46.713156,331.03168 c -12.620788,-1.6848 -25.177613,-4.02116 -37.6185886,-7.00608 2.0442726,6.42162 4.2580696,12.83131 6.6337856,19.22758 -4.752476,4.89039 -9.6558386,9.69729 -14.7111313,14.41473 13.5993133,3.26523 27.3208853,5.81927 41.1123853,7.66062 1.525265,-11.43129 3.054109,-22.86407 4.583549,-34.29685"
       style="fill:#8d463c;fill-opacity:1;fill-rule:nonzero;stroke:none;stroke-width:0.149097"
       id="path16" /><path
       d="m 46.713156,331.03168 c -12.620788,-1.6848 -25.177613,-4.02116 -37.6185886,-7.00608 2.0442726,6.42162 4.2580696,12.83131 6.6337856,19.22758 -4.752476,4.89039 -9.6558386,9.69729 -14.7111313,14.41473 13.5993133,3.26523 27.3208853,5.81927 41.1123853,7.66062 1.525265,-11.43129 3.054109,-22.86407 4.583549,-34.29685 z"
       style="fill:none;stroke:#4f2a2d;stroke-width:2.98195;stroke-linecap:butt;stroke-linejoin:round;stroke-miterlimit:10;stroke-dasharray:none;stroke-opacity:1"
       id="path18" /><path
       d="m 145.28868,331.03168 c 12.62109,-1.6848 25.17806,-4.02116 37.61576,-7.00608 -2.04413,6.42162 -4.25524,12.83131 -6.63185,19.22758 4.75322,4.89039 9.65703,9.69729 14.70994,14.41473 -13.59768,3.26523 -27.3191,5.81927 -41.11358,7.66062 -1.52527,-11.43129 -3.05351,-22.86407 -4.58027,-34.29685"
       style="fill:#8d463c;fill-opacity:1;fill-rule:nonzero;stroke:none;stroke-width:0.149097"
       id="path20" /><path
       d="m 145.28868,331.03168 c 12.62109,-1.6848 25.17806,-4.02116 37.61576,-7.00608 -2.04413,6.42162 -4.25524,12.83131 -6.63185,19.22758 4.75322,4.89039 9.65703,9.69729 14.70994,14.41473 -13.59768,3.26523 -27.3191,5.81927 -41.11358,7.66062 -1.52527,-11.43129 -3.05351,-22.86407 -4.58027,-34.29685 z"
       style="fill:none;stroke:#4f2a2d;stroke-width:2.98195;stroke-linecap:butt;stroke-linejoin:round;stroke-miterlimit:10;stroke-dasharray:none;stroke-opacity:1"
       id="path22" /><path
       d="m 144.61923,468.51429 c -3.51571,2.63455 -6.0936,2.77172 -8.72666,2.5272 -2.62113,-0.20426 -4.97091,-0.25496 -8.65212,1.3866 -3.58131,1.85626 -4.99625,3.7334 -6.4738,5.90277 -0.75443,1.03026 -1.49247,2.2126 -2.64946,3.05649 -1.14954,0.87073 -2.64648,1.64305 -4.76962,2.18577 -0.5293,0.13567 -1.03176,0.23855 -1.50738,0.31608 -0.48158,0.0567 -0.94378,0.0447 -1.37766,0.0358 -0.87371,-0.0298 -1.65199,-0.14761 -2.36319,-0.32056 -1.42239,-0.34591 -2.5764,-0.92142 -3.70059,-1.50141 -2.26032,-1.22111 -4.37899,-2.71656 -8.399696,-2.47353 -4.019663,-0.24303 -6.138037,1.25242 -8.399396,2.47353 -1.124193,0.57999 -2.277312,1.1555 -3.700147,1.50141 -0.711642,0.17295 -1.489184,0.29074 -2.362894,0.32056 -0.433873,0.009 -0.89682,0.0209 -1.377361,-0.0358 -0.475769,-0.0775 -0.978376,-0.18041 -1.508417,-0.31608 -2.122847,-0.54272 -3.619635,-1.31504 -4.768132,-2.18577 -1.157889,-0.84389 -1.895772,-2.02623 -2.650651,-3.05649 -1.477554,-2.16937 -2.892786,-4.04651 -6.473506,-5.90277 -3.681958,-1.64156 -6.03024,-1.59086 -8.652862,-1.3866 -2.632461,0.24452 -5.210801,0.10735 -8.72562,-2.5272 -0.898759,-0.6277 -1.540473,-1.3538 -2.060674,-2.05456 -0.52527,-0.69479 -0.92485,-1.3717 -1.236464,-2.0322 -0.622481,-1.31951 -0.899802,-2.57491 -1.152522,-3.80794 -0.182346,-1.3046 -0.344265,-2.58535 -0.79275,-3.90784 -0.224093,-0.66199 -0.521244,-1.33442 -0.931858,-2.02623 -0.41464,-0.68734 -0.949303,-1.38959 -1.527055,-2.22304 -2.40643,-3.22647 -4.889347,-3.95257 -7.169492,-5.01862 -2.300422,-1.02281 -4.934077,-2.05605 -6.740241,-6.06975 -2.01341,-3.91529 -1.190393,-6.61545 -0.549722,-9.05617 0.372743,-1.24496 0.610852,-2.41239 0.85731,-3.82136 0.217234,-1.40003 0.202026,-2.96108 -0.30401,-4.91425 -0.125241,-0.49053 -0.267928,-0.94229 -0.42105,-1.36722 -0.135828,-0.42642 -0.241836,-0.83196 -0.387355,-1.20769 -0.277769,-0.75294 -0.611597,-1.4045 -0.983148,-1.99343 -0.743697,-1.17787 -1.637684,-2.10376 -2.534654,-3.06395 -1.729677,-1.91292 -3.221843,-4.01817 -3.469345,-8.39865 0.247502,-4.38197 1.739668,-6.48722 3.469345,-8.40014 0.89697,-0.96019 1.790957,-1.88608 2.534654,-3.06395 0.371551,-0.58894 0.705379,-1.239 0.983148,-1.99343 0.145519,-0.37573 0.251527,-0.78127 0.387355,-1.20769 0.153122,-0.42493 0.295809,-0.87669 0.42105,-1.36573 0.506036,-1.95467 0.521244,-3.51571 0.30401,-4.91574 -0.246458,-1.40897 -0.484567,-2.5764 -0.85731,-3.82136 -0.640671,-2.44072 -1.463688,-5.14088 0.549722,-9.05617 1.806164,-4.01221 4.439819,-5.04545 6.740241,-6.06975 2.280145,-1.06456 4.763062,-1.79215 7.169492,-5.01862 0.577752,-0.83345 1.112415,-1.5357 1.527055,-2.22304 0.410614,-0.6933 0.707765,-1.36424 0.931858,-2.02623 0.448485,-1.32249 0.610404,-2.60324 0.79275,-3.90784 0.25272,-1.23303 0.530041,-2.48843 1.152522,-3.80794 0.311614,-0.66051 0.711194,-1.33741 1.236464,-2.0322 0.520201,-0.70076 1.161915,-1.42686 2.060674,-2.05307 3.514819,-2.63604 6.093159,-2.77321 8.72562,-2.52869 2.622622,0.20426 4.970904,0.25496 8.652862,-1.3866 3.58072,-1.85478 4.995952,-3.7334 6.473506,-5.90277 0.754879,-1.03026 1.492762,-2.21409 2.650651,-3.05649 1.148497,-0.87073 2.645285,-1.64305 4.768132,-2.18577 0.530041,-0.13568 1.032648,-0.23855 1.508417,-0.31608 0.480541,-0.0567 0.943488,-0.0447 1.377361,-0.0343 0.87371,0.0283 1.651252,0.14612 2.362894,0.31907 1.422835,0.34591 2.575954,0.92142 3.700147,1.50141 2.261359,1.2226 4.379733,2.71655 8.399396,2.47353 4.020706,0.24302 6.139376,-1.25093 8.399696,-2.47353 1.12419,-0.57999 2.2782,-1.1555 3.70059,-1.50141 0.7112,-0.17295 1.48948,-0.29074 2.36319,-0.31907 0.43388,-0.0104 0.89608,-0.0224 1.37766,0.0343 0.47562,0.0775 0.97808,0.1804 1.50738,0.31608 2.12314,0.54272 3.62008,1.31504 4.76962,2.18577 1.15699,0.8424 1.89503,2.02623 2.64946,3.05649 1.47755,2.16937 2.89249,4.04799 6.4738,5.90277 3.68121,1.64156 6.03099,1.59086 8.65212,1.3866 2.63306,-0.24452 5.21095,-0.10735 8.72666,2.52869 0.89757,0.62621 1.54018,1.35231 2.06053,2.05307 0.52482,0.69479 0.9244,1.37169 1.23601,2.0322 0.62323,1.31951 0.89906,2.57491 1.15253,3.80794 0.18189,1.3046 0.34441,2.58535 0.79319,3.90784 0.22365,0.66199 0.52035,1.33293 0.93186,2.02623 0.41449,0.68734 0.94826,1.38959 1.52676,2.22304 2.40643,3.22647 4.8889,3.95406 7.17009,5.01862 2.30057,1.0243 4.93363,2.05754 6.73919,6.06975 2.01431,3.91529 1.19129,6.61545 0.55017,9.05617 -0.37274,1.24496 -0.6113,2.41239 -0.85731,3.82136 -0.21768,1.40003 -0.20277,2.96107 0.30416,4.91574 0.12524,0.48904 0.26838,0.9408 0.42046,1.36573 0.13568,0.42642 0.24153,0.83196 0.38765,1.20769 0.27881,0.75443 0.6113,1.40449 0.98255,1.99343 0.744,1.17787 1.63858,2.10376 2.53465,3.06395 1.73102,1.91292 3.22498,4.01817 3.47099,8.40014 -0.24601,4.38048 -1.73997,6.48573 -3.47099,8.39865 -0.89607,0.96019 -1.79065,1.88608 -2.53465,3.06395 -0.37125,0.58893 -0.70374,1.24049 -0.98255,1.99343 -0.14612,0.37573 -0.25197,0.78127 -0.38765,1.20769 -0.15208,0.42493 -0.29522,0.87669 -0.42046,1.36722 -0.50693,1.95317 -0.52184,3.51422 -0.30416,4.91425 0.24601,1.40897 0.48457,2.5764 0.85731,3.82136 0.64112,2.44072 1.46414,5.14088 -0.55017,9.05617 -1.80556,4.0137 -4.43862,5.04694 -6.73919,6.06975 -2.28119,1.06605 -4.76366,1.79215 -7.17009,5.01862 -0.5785,0.83345 -1.11227,1.5357 -1.52676,2.22304 -0.41151,0.69181 -0.70821,1.36424 -0.93186,2.02623 -0.44878,1.32249 -0.6113,2.60324 -0.79319,3.90784 -0.25347,1.23303 -0.5293,2.48843 -1.15253,3.80794 -0.31161,0.6605 -0.71119,1.33741 -1.23601,2.0322 -0.52035,0.70076 -1.16296,1.42686 -2.06053,2.05456"
       style="fill:#53c16b;fill-opacity:1;fill-rule:nonzero;stroke:none;stroke-width:0.149097"
       id="path24" /><path
       d="m 144.61923,468.51429 c -3.51571,2.63455 -6.0936,2.77172 -8.72666,2.5272 -2.62113,-0.20426 -4.97091,-0.25496 -8.65212,1.3866 -3.58131,1.85626 -4.99625,3.7334 -6.4738,5.90277 -0.75443,1.03026 -1.49247,2.2126 -2.64946,3.05649 -1.14954,0.87073 -2.64648,1.64305 -4.76962,2.18577 -0.5293,0.13567 -1.03176,0.23855 -1.50738,0.31608 -0.48158,0.0567 -0.94378,0.0447 -1.37766,0.0358 -0.87371,-0.0298 -1.65199,-0.14761 -2.36319,-0.32056 -1.42239,-0.34591 -2.5764,-0.92142 -3.70059,-1.50141 -2.26032,-1.22111 -4.37899,-2.71656 -8.399696,-2.47353 -4.019663,-0.24303 -6.138037,1.25242 -8.399396,2.47353 -1.124193,0.57999 -2.277312,1.1555 -3.700147,1.50141 -0.711642,0.17295 -1.489184,0.29074 -2.362894,0.32056 -0.433873,0.009 -0.89682,0.0209 -1.377361,-0.0358 -0.475769,-0.0775 -0.978376,-0.18041 -1.508417,-0.31608 -2.122847,-0.54272 -3.619635,-1.31504 -4.768132,-2.18577 -1.157889,-0.84389 -1.895772,-2.02623 -2.650651,-3.05649 -1.477554,-2.16937 -2.892786,-4.04651 -6.473506,-5.90277 -3.681958,-1.64156 -6.03024,-1.59086 -8.652862,-1.3866 -2.632461,0.24452 -5.210801,0.10735 -8.72562,-2.5272 -0.898759,-0.6277 -1.540473,-1.3538 -2.060674,-2.05456 -0.52527,-0.69479 -0.92485,-1.3717 -1.236464,-2.0322 -0.622481,-1.31951 -0.899802,-2.57491 -1.152522,-3.80794 -0.182346,-1.3046 -0.344265,-2.58535 -0.79275,-3.90784 -0.224093,-0.66199 -0.521244,-1.33442 -0.931858,-2.02623 -0.41464,-0.68734 -0.949303,-1.38959 -1.527055,-2.22304 -2.40643,-3.22647 -4.889347,-3.95257 -7.169492,-5.01862 -2.300422,-1.02281 -4.934077,-2.05605 -6.740241,-6.06975 -2.01341,-3.91529 -1.190393,-6.61545 -0.549722,-9.05617 0.372743,-1.24496 0.610852,-2.41239 0.85731,-3.82136 0.217234,-1.40003 0.202026,-2.96108 -0.30401,-4.91425 -0.125241,-0.49053 -0.267928,-0.94229 -0.42105,-1.36722 -0.135828,-0.42642 -0.241836,-0.83196 -0.387355,-1.20769 -0.277769,-0.75294 -0.611597,-1.4045 -0.983148,-1.99343 -0.743697,-1.17787 -1.637684,-2.10376 -2.534654,-3.06395 -1.729677,-1.91292 -3.221843,-4.01817 -3.469345,-8.39865 0.247502,-4.38197 1.739668,-6.48722 3.469345,-8.40014 0.89697,-0.96019 1.790957,-1.88608 2.534654,-3.06395 0.371551,-0.58894 0.705379,-1.239 0.983148,-1.99343 0.145519,-0.37573 0.251527,-0.78127 0.387355,-1.20769 0.153122,-0.42493 0.295809,-0.87669 0.42105,-1.36573 0.506036,-1.95467 0.521244,-3.51571 0.30401,-4.91574 -0.246458,-1.40897 -0.484567,-2.5764 -0.85731,-3.82136 -0.640671,-2.44072 -1.463688,-5.14088 0.549722,-9.05617 1.806164,-4.01221 4.439819,-5.04545 6.740241,-6.06975 2.280145,-1.06456 4.763062,-1.79215 7.169492,-5.01862 0.577752,-0.83345 1.112415,-1.5357 1.527055,-2.22304 0.410614,-0.6933 0.707765,-1.36424 0.931858,-2.02623 0.448485,-1.32249 0.610404,-2.60324 0.79275,-3.90784 0.25272,-1.23303 0.530041,-2.48843 1.152522,-3.80794 0.311614,-0.66051 0.711194,-1.33741 1.236464,-2.0322 0.520201,-0.70076 1.161915,-1.42686 2.060674,-2.05307 3.514819,-2.63604 6.093159,-2.77321 8.72562,-2.52869 2.622622,0.20426 4.970904,0.25496 8.652862,-1.3866 3.58072,-1.85478 4.995952,-3.7334 6.473506,-5.90277 0.754879,-1.03026 1.492762,-2.21409 2.650651,-3.05649 1.148497,-0.87073 2.645285,-1.64305 4.768132,-2.18577 0.530041,-0.13568 1.032648,-0.23855 1.508417,-0.31608 0.480541,-0.0567 0.943488,-0.0447 1.377361,-0.0343 0.87371,0.0283 1.651252,0.14612 2.362894,0.31907 1.422835,0.34591 2.575954,0.92142 3.700147,1.50141 2.261359,1.2226 4.379733,2.71655 8.399396,2.47353 4.020706,0.24302 6.139376,-1.25093 8.399696,-2.47353 1.12419,-0.57999 2.2782,-1.1555 3.70059,-1.50141 0.7112,-0.17295 1.48948,-0.29074 2.36319,-0.31907 0.43388,-0.0104 0.89608,-0.0224 1.37766,0.0343 0.47562,0.0775 0.97808,0.1804 1.50738,0.31608 2.12314,0.54272 3.62008,1.31504 4.76962,2.18577 1.15699,0.8424 1.89503,2.02623 2.64946,3.05649 1.47755,2.16937 2.89249,4.04799 6.4738,5.90277 3.68121,1.64156 6.03099,1.59086 8.65212,1.3866 2.63306,-0.24452 5.21095,-0.10735 8.72666,2.52869 0.89757,0.62621 1.54018,1.35231 2.06053,2.05307 0.52482,0.69479 0.9244,1.37169 1.23601,2.0322 0.62323,1.31951 0.89906,2.57491 1.15253,3.80794 0.18189,1.3046 0.34441,2.58535 0.79319,3.90784 0.22365,0.66199 0.52035,1.33293 0.93186,2.02623 0.41449,0.68734 0.94826,1.38959 1.52676,2.22304 2.40643,3.22647 4.8889,3.95406 7.17009,5.01862 2.30057,1.0243 4.93363,2.05754 6.73919,6.06975 2.01431,3.91529 1.19129,6.61545 0.55017,9.05617 -0.37274,1.24496 -0.6113,2.41239 -0.85731,3.82136 -0.21768,1.40003 -0.20277,2.96107 0.30416,4.91574 0.12524,0.48904 0.26838,0.9408 0.42046,1.36573 0.13568,0.42642 0.24153,0.83196 0.38765,1.20769 0.27881,0.75443 0.6113,1.40449 0.98255,1.99343 0.744,1.17787 1.63858,2.10376 2.53465,3.06395 1.73102,1.91292 3.22498,4.01817 3.47099,8.40014 -0.24601,4.38048 -1.73997,6.48573 -3.47099,8.39865 -0.89607,0.96019 -1.79065,1.88608 -2.53465,3.06395 -0.37125,0.58893 -0.70374,1.24049 -0.98255,1.99343 -0.14612,0.37573 -0.25197,0.78127 -0.38765,1.20769 -0.15208,0.42493 -0.29522,0.87669 -0.42046,1.36722 -0.50693,1.95317 -0.52184,3.51422 -0.30416,4.91425 0.24601,1.40897 0.48457,2.5764 0.85731,3.82136 0.64112,2.44072 1.46414,5.14088 -0.55017,9.05617 -1.80556,4.0137 -4.43862,5.04694 -6.73919,6.06975 -2.28119,1.06605 -4.76366,1.79215 -7.17009,5.01862 -0.5785,0.83345 -1.11227,1.5357 -1.52676,2.22304 -0.41151,0.69181 -0.70821,1.36424 -0.93186,2.02623 -0.44878,1.32249 -0.6113,2.60324 -0.79319,3.90784 -0.25347,1.23303 -0.5293,2.48843 -1.15253,3.80794 -0.31161,0.6605 -0.71119,1.33741 -1.23601,2.0322 -0.52035,0.70076 -1.16296,1.42686 -2.06053,2.05456 z"
       style="fill:none;stroke:#4f2a2d;stroke-width:2.98195;stroke-linecap:butt;stroke-linejoin:round;stroke-miterlimit:10;stroke-dasharray:none;stroke-opacity:1"
       id="path26" /><path
       d="m 156.90187,407.55139 c 0,-33.63635 -27.26841,-60.90326 -60.902816,-60.90326 -33.635305,0 -60.902068,27.26691 -60.902068,60.90326 0,33.63486 27.266763,60.90177 60.902068,60.90177 33.634406,0 60.902816,-27.26691 60.902816,-60.90177"
       style="fill:#dec4a0;fill-opacity:1;fill-rule:nonzero;stroke:none;stroke-width:0.149097"
       id="path28" /><path
       d="m 156.90187,407.55139 c 0,-33.63635 -27.26841,-60.90326 -60.902816,-60.90326 -33.635305,0 -60.902068,27.26691 -60.902068,60.90326 0,33.63486 27.266763,60.90177 60.902068,60.90177 33.634406,0 60.902816,-27.26691 60.902816,-60.90177 z"
       style="fill:none;stroke:#4f2a2d;stroke-width:2.98195;stroke-linecap:butt;stroke-linejoin:round;stroke-miterlimit:10;stroke-dasharray:none;stroke-opacity:1"
       id="path30" /><path
       d="m 145.4676,407.55139 c 0,-27.32357 -22.14542,-49.46899 -49.468546,-49.46899 -27.322078,0 -49.468244,22.14542 -49.468244,49.46899 0,27.32208 22.146166,49.4675 49.468244,49.4675 27.323126,0 49.468546,-22.14542 49.468546,-49.4675"
       style="fill:#ffffff;fill-opacity:1;fill-rule:nonzero;stroke:none;stroke-width:0.149097"
       id="path32" /><path
       d="m 145.4676,407.55139 c 0,-27.32357 -22.14542,-49.46899 -49.468546,-49.46899 -27.322078,0 -49.468244,22.14542 -49.468244,49.46899 0,27.32208 22.146166,49.4675 49.468244,49.4675 27.323126,0 49.468546,-22.14542 49.468546,-49.4675 z"
       style="fill:none;stroke:#4f2a2d;stroke-width:2.98195;stroke-linecap:butt;stroke-linejoin:round;stroke-miterlimit:10;stroke-dasharray:none;stroke-opacity:1"
       id="path34" /><path
       d="m 106.34894,443.88938 c -0.85433,0 -1.64603,-0.24303 -2.33934,-0.63217 -0.89011,1.96659 -2.86117,3.34276 -5.158762,3.34276 -0.648573,0 -1.262854,-0.13121 -1.841352,-0.331 -1.1892,2.42731 -3.659742,4.11211 -6.544476,4.11211 -3.768136,0 -6.828805,-2.85372 -7.230622,-6.51257 -2.552099,-0.11033 -4.589364,-2.19322 -4.589364,-4.77112 0,-2.64498 2.146106,-4.79049 4.792136,-4.79049 1.662733,0 3.125676,0.84687 3.982985,2.13507 0.929622,-0.42791 1.954665,-0.68435 3.044865,-0.68435 1.572529,0 3.018027,0.50842 4.210805,1.35231 1.036823,-1.13314 2.51557,-1.85477 4.175023,-1.85477 1.321002,0 2.522722,0.47264 3.487382,1.23154 0.85582,-1.30907 2.3289,-2.1798 4.01072,-2.1798 2.6435,0 4.7905,2.14551 4.7905,4.79049 0,2.64648 -2.147,4.79199 -4.7905,4.79199"
       style="fill:#ffffff;fill-opacity:1;fill-rule:nonzero;stroke:none;stroke-width:0.149097"
       id="path36" /><path
       d="m 106.34894,443.88938 c -0.85433,0 -1.64603,-0.24303 -2.33934,-0.63217 -0.89011,1.96659 -2.86117,3.34276 -5.158762,3.34276 -0.648573,0 -1.262854,-0.13121 -1.841352,-0.331 -1.1892,2.42731 -3.659742,4.11211 -6.544476,4.11211 -3.768136,0 -6.828805,-2.85372 -7.230622,-6.51257 -2.552099,-0.11033 -4.589364,-2.19322 -4.589364,-4.77112 0,-2.64498 2.146106,-4.79049 4.792136,-4.79049 1.662733,0 3.125676,0.84687 3.982985,2.13507 0.929622,-0.42791 1.954665,-0.68435 3.044865,-0.68435 1.572529,0 3.018027,0.50842 4.210805,1.35231 1.036823,-1.13314 2.51557,-1.85477 4.175023,-1.85477 1.321002,0 2.522722,0.47264 3.487382,1.23154 0.85582,-1.30907 2.3289,-2.1798 4.01072,-2.1798 2.6435,0 4.7905,2.14551 4.7905,4.79049 0,2.64648 -2.147,4.79199 -4.7905,4.79199 z"
       style="fill:none;stroke:#4f2a2d;stroke-width:2.98195;stroke-linecap:butt;stroke-linejoin:round;stroke-miterlimit:10;stroke-dasharray:none;stroke-opacity:1"
       id="path38" /><path
       d="m 76.783097,417.08765 c 0,-0.47562 0,-0.94527 0,-1.40449 0,-7.4489 5.973732,-19.53324 5.973732,-23.46792 0,-3.93169 0,-12.92524 0,-14.89333 0,-1.96659 0.701801,-4.21498 2.951679,-4.21498 h 20.582282 c 2.24988,0 2.95064,2.24839 2.95064,4.21498 0,1.96809 0,10.96164 0,14.89333 0,3.93468 5.97433,16.01902 5.97433,23.46792 0,0.45922 0,0.92887 0,1.40449 H 76.783097"
       style="fill:#f5bb26;fill-opacity:1;fill-rule:nonzero;stroke:none;stroke-width:0.149097"
       id="path40" /><path
       d="m 86.621133,377.32191 c 0,1.96809 0,10.96164 0,14.89333 0,3.93468 -5.973732,16.01902 -5.973732,23.46792 0,0.45922 0,0.92887 0,1.40449 h -3.864304 c 0,-0.47562 0,-0.94527 0,-1.40449 0,-7.4489 5.973732,-19.53324 5.973732,-23.46792 0,-3.93169 0,-12.92524 0,-14.89333 0,-1.96659 0.701801,-4.21498 2.951679,-4.21498 h 3.864304 c -2.249878,0 -2.951679,2.24839 -2.951679,4.21498"
       style="fill:#f4dc83;fill-opacity:1;fill-rule:nonzero;stroke:none;stroke-width:0.149097"
       id="path42" /><path
       d="m 115.21576,433.31838 c 0,2.31698 -1.61771,4.00327 -3.72445,4.00327 H 80.506951 c -2.106596,0 -3.723854,-1.68629 -3.723854,-4.00327 0,0 0,-8.97118 0,-16.23073 h 38.432663 c 0,7.25955 0,16.23073 0,16.23073"
       style="fill:#ffffff;fill-opacity:1;fill-rule:nonzero;stroke:none;stroke-width:0.149097"
       id="path44" /><path
       d="m 84.420755,437.32165 h -3.664513 c -2.107192,0 -3.724451,-1.68629 -3.724451,-4.00327 0,0 0,-8.97118 0,-16.23073 h 3.66511 c 0,7.25955 0,16.23073 0,16.23073 0,2.31698 1.617258,4.00327 3.723854,4.00327"
       style="fill:#f1e3b1;fill-opacity:1;fill-rule:nonzero;stroke:none;stroke-width:0.149097"
       id="path46" /><path
       d="M 76.783097,417.08765 H 115.21576"
       style="fill:none;stroke:#4f2a2d;stroke-width:2.98195;stroke-linecap:butt;stroke-linejoin:round;stroke-miterlimit:10;stroke-dasharray:none;stroke-opacity:1"
       id="path48" /><path
       d="m 80.506951,437.32165 c -2.106596,0 -3.723854,-1.68629 -3.723854,-4.00327 0,0 0,-10.18781 0,-17.63522 0,-7.4489 5.973732,-19.53324 5.973732,-23.46792 0,-3.93169 0,-12.92524 0,-14.89333 0,-1.96659 0.701801,-4.21498 2.951679,-4.21498 h 20.582282 c 2.24988,0 2.95064,2.24839 2.95064,4.21498 0,1.96809 0,10.96164 0,14.89333 0,3.93468 5.97433,16.01902 5.97433,23.46792 0,7.44741 0,17.63522 0,17.63522 0,2.31698 -1.61771,4.00327 -3.72445,4.00327 z"
       style="fill:none;stroke:#4f2a2d;stroke-width:2.98195;stroke-linecap:butt;stroke-linejoin:round;stroke-miterlimit:10;stroke-dasharray:none;stroke-opacity:1"
       id="path50" /><path
       d="m 84.125542,439.42988 v -14.26115 c 0,-1.86223 1.510207,-3.37259 3.372134,-3.37259 1.861926,0 3.372133,1.51036 3.372133,3.37259 v 14.26115"
       style="fill:#ffffff;fill-opacity:1;fill-rule:nonzero;stroke:none;stroke-width:0.149097"
       id="path52" /><path
       d="m 84.125542,439.42988 v -14.26115 c 0,-1.86223 1.510207,-3.37259 3.372134,-3.37259 1.861926,0 3.372133,1.51036 3.372133,3.37259 v 14.26115"
       style="fill:none;stroke:#4f2a2d;stroke-width:2.98195;stroke-linecap:round;stroke-linejoin:round;stroke-miterlimit:10;stroke-dasharray:none;stroke-opacity:1"
       id="path54" /><path
       d="m 107.17047,407.95544 c 0,-1.45519 -1.18085,-2.63604 -2.63455,-2.63604 -1.4537,0 -2.63455,1.18085 -2.63455,2.63604 0,1.4537 1.18085,2.63455 2.63455,2.63455 1.4537,0 2.63455,-1.18085 2.63455,-2.63455"
       style="fill:#f57c23;fill-opacity:1;fill-rule:nonzero;stroke:none;stroke-width:0.149097"
       id="path56" /><path
       d="m 104.25412,392.46274 c 0,-1.45369 -1.18085,-2.63305 -2.63455,-2.63305 -1.45519,0 -2.636036,1.17936 -2.636036,2.63305 0,1.45519 1.180846,2.63455 2.636036,2.63455 1.4537,0 2.63455,-1.17936 2.63455,-2.63455"
       style="fill:#f57c23;fill-opacity:1;fill-rule:nonzero;stroke:none;stroke-width:0.149097"
       id="path58" /><path
       d="m 93.699228,384.8394 c 0,-1.1227 -0.914413,-2.03667 -2.037265,-2.03667 -1.124045,0 -2.038458,0.91397 -2.038458,2.03667 0,1.12419 0.914413,2.03816 2.038458,2.03816 1.122852,0 2.037265,-0.91397 2.037265,-2.03816"
       style="fill:#f57c23;fill-opacity:1;fill-rule:nonzero;stroke:none;stroke-width:0.149097"
       id="path60" /><path
       d="m 97.684897,401.38473 c 0,-0.93037 -0.754432,-1.68629 -1.685843,-1.68629 -0.930069,0 -1.685396,0.75592 -1.685396,1.68629 0,0.93036 0.755327,1.68629 1.685396,1.68629 0.931411,0 1.685843,-0.75593 1.685843,-1.68629"
       style="fill:#f57c23;fill-opacity:1;fill-rule:nonzero;stroke:none;stroke-width:0.149097"
       id="path62" /><path
       d="m 171.34641,344.25512 c -49.74929,9.80762 -100.941397,9.80762 -150.693224,0 -2.230645,11.31648 -4.461289,22.63297 -6.691934,33.94796 54.169431,10.67835 109.906618,10.67835 164.076648,0 -2.2305,-11.31499 -4.45801,-22.63148 -6.69149,-33.94796"
       style="fill:#b25649;fill-opacity:1;fill-rule:nonzero;stroke:none;stroke-width:0.149097"
       id="path64" /><path
       d="m 171.34641,344.25512 c -49.74929,9.80762 -100.941397,9.80762 -150.693224,0 -2.230645,11.31648 -4.461289,22.63297 -6.691934,33.94796 54.169431,10.67835 109.906618,10.67835 164.076648,0 -2.2305,-11.31499 -4.45801,-22.63148 -6.69149,-33.94796 z"
       style="fill:none;stroke:#4f2a2d;stroke-width:2.98195;stroke-linecap:butt;stroke-linejoin:round;stroke-miterlimit:10;stroke-dasharray:none;stroke-opacity:1"
       id="path66" /><path
       d="M 171.34641,344.25512 145.28868,331.03168"
       style="fill:none;stroke:#4f2a2d;stroke-width:2.98195;stroke-linecap:butt;stroke-linejoin:miter;stroke-miterlimit:10;stroke-dasharray:none;stroke-opacity:1"
       id="path68" /><path
       d="m 20.653186,344.25512 26.05997,-13.22344"
       style="fill:none;stroke:#4f2a2d;stroke-width:2.98195;stroke-linecap:butt;stroke-linejoin:miter;stroke-miterlimit:10;stroke-dasharray:none;stroke-opacity:1"
       id="path70" /><g
       style="font-style:normal;font-variant:normal;font-weight:800;font-stretch:normal;font-size:11.6842px;line-height:1.25;font-family:Barlow;-inkscape-font-specification:'Barlow, Ultra-Bold';font-variant-ligatures:normal;font-variant-caps:normal;font-variant-numeric:normal;font-variant-east-asian:normal;fill:#ffffff;fill-opacity:1;stroke:none;stroke-width:0.438159"
       id="text1489"
       transform="matrix(-1.4847406,0.13618102,0.13618102,1.4847406,-24.075444,-63.431575)"
       aria-label="LUCAS BRUM"><path
         id="path1668"
         d="m -22.39908,287.1069 q 0.114834,-0.0216 0.136404,0.0933 l 1.466759,7.80869 q 0.02157,0.11484 -0.09326,0.13641 l -0.585652,0.11001 q -0.114834,0.0216 -0.136404,-0.0933 l -1.345967,-7.16562 q -0.0086,-0.0459 -0.05456,-0.0373 l -4.053631,0.76142 q -0.114834,0.0216 -0.136404,-0.0933 l -0.09059,-0.4823 q -0.02157,-0.11484 0.09326,-0.13641 z" /><path
         id="path1670"
         d="m -31.478778,288.62695 q 0.807276,-0.13137 1.482577,0.0902 0.675301,0.22157 1.115108,0.7419 0.441684,0.53186 0.567418,1.30454 l 0.889526,5.46641 q 0.01877,0.11532 -0.09656,0.13409 l -0.588158,0.0957 q -0.115325,0.0188 -0.134091,-0.0966 l -0.893279,-5.48948 q -0.133241,-0.8188 -0.748185,-1.25144 -0.613068,-0.42111 -1.478006,-0.28036 -0.864938,0.14075 -1.312861,0.7345 -0.446047,0.60529 -0.312806,1.4241 l 0.893278,5.48948 q 0.01877,0.11532 -0.09656,0.13409 l -0.588158,0.0957 q -0.115325,0.0188 -0.134092,-0.0966 l -0.889525,-5.46641 q -0.125735,-0.77268 0.124532,-1.41714 0.240611,-0.63105 0.810821,-1.05529 0.57021,-0.42425 1.389018,-0.55749 z" /><path
         id="path1672"
         d="m -38.607296,289.68577 q 0.810161,-0.1122 1.466846,0.11534 0.658289,0.23911 1.085644,0.76971 0.417385,0.54378 0.523174,1.30764 l 0.440789,3.18278 q 0.104187,0.75229 -0.151308,1.37746 -0.267069,0.62678 -0.837199,1.02422 -0.568528,0.40902 -1.378689,0.52122 -0.810162,0.1122 -1.466847,-0.11534 -0.656686,-0.22754 -1.070865,-0.74817 -0.425752,-0.51903 -0.528336,-1.25975 -0.008,-0.0579 0.0219,-0.0974 0.02991,-0.0395 0.07621,-0.046 l 0.585452,-0.11646 q 0.115737,-0.016 0.130163,0.0881 l 0.0048,0.0347 q 0.113803,0.82174 0.701942,1.23571 0.589741,0.42554 1.446198,0.30693 0.856456,-0.11862 1.308351,-0.68842 0.451895,-0.5698 0.339694,-1.37996 l -0.448804,-3.24064 q -0.1122,-0.81017 -0.701942,-1.23571 -0.589741,-0.42554 -1.446198,-0.30693 -0.856456,0.11862 -1.309954,0.67684 -0.451894,0.5698 -0.338091,1.39154 l 0.0032,0.0231 q 0.01443,0.10417 -0.101312,0.1202 l -0.595069,0.047 q -0.115737,0.016 -0.130163,-0.0881 -0.104186,-0.7523 0.162882,-1.37907 0.257098,-0.61359 0.827229,-1.01104 0.57013,-0.39744 1.380292,-0.50964 z" /><path
         id="path1674"
         d="m -47.960913,290.95651 q 0.104447,-0.0122 0.150114,0.0766 l 0.635126,1.408 q 0.01568,0.0335 0.05049,0.0294 l 3.469952,-0.4056 q 0.03482,-0.004 0.04235,-0.0402 l 0.293289,-1.51651 q 0.02396,-0.0969 0.12841,-0.10912 l 0.62668,-0.0733 q 0.127658,-0.0149 0.107763,0.1168 l -1.640972,8.20292 q -0.02396,0.0969 -0.12841,0.10912 l -0.789153,0.0923 q -0.104447,0.0122 -0.150114,-0.0766 l -3.500128,-7.60199 -0.01703,-0.0451 q -0.0095,-0.0812 0.09495,-0.0934 z m 4.205459,1.86118 q 0.0089,-0.0246 -0.0054,-0.0464 -0.02457,-0.009 -0.04778,-0.006 l -2.994139,0.34997 q -0.02321,0.003 -0.03346,0.0157 -0.0205,0.0259 -0.0062,0.0478 l 2.062126,4.55858 q 0.01432,0.0219 0.03753,0.0191 0.02321,-0.003 0.0321,-0.0273 z" /><path
         id="path1676"
         d="m -52.13239,291.28098 q 1.314164,-0.12729 2.139179,0.39148 0.813385,0.5199 0.909135,1.50843 l 0.03492,0.36053 q 0.01127,0.11629 -0.105033,0.12756 l -0.569859,0.0552 q -0.116298,0.0113 -0.127562,-0.10504 l -0.03041,-0.314 q -0.06534,-0.67453 -0.664117,-1.03913 -0.597655,-0.35297 -1.586186,-0.25722 -0.895492,0.0867 -1.324636,0.50395 -0.428018,0.42884 -0.367189,1.05685 0.03943,0.40704 0.288554,0.67638 0.237497,0.27047 0.715841,0.48239 0.466713,0.21305 1.313465,0.47146 0.906027,0.26441 1.419259,0.47295 0.50273,0.2213 0.84453,0.59906 0.331297,0.39051 0.392126,1.01851 0.09462,0.97691 -0.528086,1.57721 -0.633213,0.61306 -1.81945,0.72796 -1.290904,0.12504 -2.093786,-0.40762 -0.802882,-0.53265 -0.899758,-1.53281 l -0.02478,-0.25586 q -0.01127,-0.11629 0.105033,-0.12756 l 0.581489,-0.0563 q 0.116298,-0.0113 0.127562,0.10503 l 0.02028,0.20934 q 0.06533,0.67452 0.641983,1.05301 0.565019,0.37961 1.507031,0.28836 0.825714,-0.08 1.234978,-0.46004 0.409263,-0.38007 0.347308,-1.01971 -0.04055,-0.41867 -0.276924,-0.67751 -0.246874,-0.24608 -0.662563,-0.41712 -0.426192,-0.15828 -1.295076,-0.40281 -0.882768,-0.26666 -1.423766,-0.51947 -0.552628,-0.25168 -0.909437,-0.6632 -0.367313,-0.39876 -0.428142,-1.02677 -0.09462,-0.9769 0.570099,-1.62823 0.664723,-0.65133 1.943998,-0.77524 z" /><path
         id="path1678"
         d="m -62.687866,296.51535 q 0.05581,-0.0391 -0.0049,-0.0699 -0.647485,-0.21197 -1.009218,-0.6901 -0.361733,-0.47813 -0.411933,-1.1891 -0.07407,-1.04897 0.560785,-1.67946 0.623197,-0.62967 1.718784,-0.70702 l 2.820554,-0.19916 q 0.116552,-0.008 0.124782,0.10832 l 0.559616,7.92552 q 0.0082,0.11656 -0.108322,0.12478 l -2.738968,0.1934 q -1.130552,0.0798 -1.81109,-0.43436 -0.692192,-0.51336 -0.76379,-1.52736 -0.04526,-0.64103 0.237331,-1.11781 0.271762,-0.46429 0.826407,-0.73772 z m 3.441499,2.95473 q 0.04662,-0.003 0.04333,-0.0499 l -0.197512,-2.79724 q -0.0033,-0.0466 -0.04991,-0.0433 l -1.981381,0.13991 q -0.734276,0.0518 -1.13836,0.46691 -0.415739,0.4159 -0.370476,1.05693 0.04773,0.676 0.518609,1.04101 0.460046,0.37748 1.194322,0.32563 z m -2.536172,-6.55607 q -0.734277,0.0519 -1.135891,0.50188 -0.413271,0.45086 -0.36307,1.16183 0.0502,0.71097 0.53438,1.09846 0.473347,0.39997 1.230933,0.34647 l 2.016347,-0.14237 q 0.04662,-0.003 0.04333,-0.0499 l -0.213148,-3.01869 q -0.0033,-0.0466 -0.04991,-0.0433 z" /><path
         id="path1680"
         d="m -70.967626,292.71144 q 0.105019,-0.005 0.144237,0.0745 l 1.901824,3.52884 q 0.01347,0.0344 0.04848,0.0326 l 1.983678,-0.10229 q 0.04668,-0.002 0.04427,-0.0491 l -0.184119,-3.57062 q -0.006,-0.11669 0.11067,-0.1227 l 0.595104,-0.0307 q 0.116687,-0.006 0.122704,0.11067 l 0.409153,7.93471 q 0.006,0.11669 -0.11067,0.12271 l -3.022193,0.15584 q -1.003508,0.0517 -1.65444,-0.54648 -0.650331,-0.58655 -0.702077,-1.59006 -0.04212,-0.8168 0.371809,-1.41144 0.413927,-0.59463 1.163969,-0.7971 0.04547,-0.0257 0.02033,-0.0595 l -1.935627,-3.50371 q -0.01287,-0.0227 -0.01468,-0.0577 -0.0042,-0.0817 0.08914,-0.0865 z m 4.269558,7.24427 q 0.04668,-0.002 0.04427,-0.0491 l -0.152229,-2.95218 q -0.0024,-0.0467 -0.04908,-0.0443 l -2.170378,0.11191 q -0.676784,0.0349 -1.075196,0.47664 -0.398412,0.44173 -0.363514,1.11852 0.0349,0.67678 0.476632,1.07519 0.442336,0.41008 1.119121,0.37518 z" /><path
         id="path1682"
         d="m -76.040585,292.81069 q 0.817447,-0.027 1.458864,0.27908 0.641418,0.30612 1.011066,0.87842 0.370034,0.58398 0.395915,1.3664 l 0.183093,5.53528 q 0.0039,0.11678 -0.112915,0.12064 l -0.595569,0.0197 q -0.116778,0.004 -0.120641,-0.11291 l -0.183866,-5.55864 q -0.02742,-0.82913 -0.581987,-1.33686 -0.554175,-0.49605 -1.430011,-0.46708 -0.875836,0.029 -1.39602,0.56056 -0.519797,0.54327 -0.492371,1.37239 l 0.183866,5.55864 q 0.0039,0.11678 -0.112916,0.12064 l -0.595568,0.0197 q -0.116778,0.004 -0.120641,-0.11291 l -0.183094,-5.53529 q -0.02588,-0.78241 0.304755,-1.38957 0.319343,-0.59509 0.939129,-0.94293 0.619786,-0.34783 1.448911,-0.37526 z" /><path
         id="path1684"
         d="m -86.110513,301.21774 q -0.05728,0.0826 -0.139058,0.0837 l -0.607519,0.008 q -0.116831,0.002 -0.118458,-0.11521 l -0.110661,-7.94448 q -0.0016,-0.11683 0.115203,-0.11846 l 0.595837,-0.008 q 0.11683,-0.002 0.118458,0.1152 l 0.09048,6.49579 q 4.88e-4,0.035 0.02402,0.0464 0.02353,0.0113 0.03472,-0.0239 l 1.863656,-2.94729 q 0.05728,-0.0826 0.139057,-0.0837 l 0.30376,-0.004 q 0.08178,-10e-4 0.141173,0.0682 l 1.944699,2.87087 q 0.01217,0.0349 0.03538,0.0229 0.0232,-0.012 0.02271,-0.0471 l -0.08999,-6.46073 q -0.0016,-0.11683 0.115203,-0.11846 l 0.595836,-0.008 q 0.116831,-0.002 0.118458,0.1152 l 0.110661,7.94449 q 0.0016,0.11683 -0.115203,0.11846 l -0.60752,0.008 q -0.09346,0.001 -0.141173,-0.0682 l -2.242796,-3.29908 q -0.01185,-0.0115 -0.03521,-0.0112 -0.02337,3.3e-4 -0.03489,0.0122 z" /></g><path
       d="m 165.05003,363.51998 c 0,-3.29356 -2.67033,-5.96389 -5.96389,-5.96389 -3.29356,0 -5.96389,2.67033 -5.96389,5.96389 0,3.29356 2.67033,5.96389 5.96389,5.96389 3.29356,0 5.96389,-2.67033 5.96389,-5.96389"
       style="fill:#f5bb26;fill-opacity:1;fill-rule:nonzero;stroke:none;stroke-width:0.149097"
       id="path102" /><path
       d="m 165.05003,363.51998 c 0,-3.29356 -2.67033,-5.96389 -5.96389,-5.96389 -3.29356,0 -5.96389,2.67033 -5.96389,5.96389 0,3.29356 2.67033,5.96389 5.96389,5.96389 3.29356,0 5.96389,-2.67033 5.96389,-5.96389 z"
       style="fill:none;stroke:#4f2a2d;stroke-width:2.98195;stroke-linecap:butt;stroke-linejoin:round;stroke-miterlimit:10;stroke-dasharray:none;stroke-opacity:1"
       id="path104" /><path
       d="m 38.876155,363.51998 c 0,-3.29356 -2.670333,-5.96389 -5.963892,-5.96389 -3.292814,0 -5.963892,2.67033 -5.963892,5.96389 0,3.29356 2.671078,5.96389 5.963892,5.96389 3.293559,0 5.963892,-2.67033 5.963892,-5.96389"
       style="fill:#f5bb26;fill-opacity:1;fill-rule:nonzero;stroke:none;stroke-width:0.149097"
       id="path106" /><path
       d="m 38.876155,363.51998 c 0,-3.29356 -2.670333,-5.96389 -5.963892,-5.96389 -3.292814,0 -5.963892,2.67033 -5.963892,5.96389 0,3.29356 2.671078,5.96389 5.963892,5.96389 3.293559,0 5.963892,-2.67033 5.963892,-5.96389 z"
       style="fill:none;stroke:#4f2a2d;stroke-width:2.98195;stroke-linecap:butt;stroke-linejoin:round;stroke-miterlimit:10;stroke-dasharray:none;stroke-opacity:1"
       id="path108" /></g></svg>
