<?xml version="1.0" encoding="UTF-8" standalone="no"?>
<svg
   viewBox="0 0 256 256"
   version="1.1"
   id="svg39"
   sodipodi:docname="bitbucket.svg"
   width="256"
   height="256"
   inkscape:version="1.2 (dc2aedaf03, 2022-05-15)"
   xmlns:inkscape="http://www.inkscape.org/namespaces/inkscape"
   xmlns:sodipodi="http://sodipodi.sourceforge.net/DTD/sodipodi-0.dtd"
   xmlns="http://www.w3.org/2000/svg"
   xmlns:svg="http://www.w3.org/2000/svg"
   xmlns:rdf="http://www.w3.org/1999/02/22-rdf-syntax-ns#"
   xmlns:cc="http://creativecommons.org/ns#"
   xmlns:dc="http://purl.org/dc/elements/1.1/">
  <sodipodi:namedview
     id="namedview41"
     pagecolor="#ffffff"
     bordercolor="#000000"
     borderopacity="0.25"
     inkscape:showpageshadow="2"
     inkscape:pageopacity="0.0"
     inkscape:pagecheckerboard="0"
     inkscape:deskcolor="#d1d1d1"
     showgrid="false"
     inkscape:zoom="1"
     inkscape:cx="-158"
     inkscape:cy="140"
     inkscape:window-width="2532"
     inkscape:window-height="1380"
     inkscape:window-x="10"
     inkscape:window-y="42"
     inkscape:window-maximized="1"
     inkscape:current-layer="svg39" />
  <defs
     id="defs9">
    <style
       id="style2">.cls-1{fill:#253858;}.cls-2{fill:none;}.cls-3{fill:#2684ff;}.cls-4{fill:url(#New_Gradient_Swatch_1);}</style>
    <linearGradient
       id="New_Gradient_Swatch_1"
       x1="64.010002"
       y1="30.27"
       x2="32.990002"
       y2="54.48"
       gradientUnits="userSpaceOnUse">
      <stop
         offset="0.18"
         stop-color="#0052cc"
         id="stop4" />
      <stop
         offset="1"
         stop-color="#2684ff"
         id="stop6" />
    </linearGradient>
  </defs>
  <title
     id="title11">Bitbucket-blue</title>
  <g
     id="g229"
     transform="matrix(4.1011454,0,0,4.1011454,0.1057807,-12.771814)">
    <polygon
       class="cls-2"
       points="37.75,43.51 40.9,25.12 21.23,25.12 24.7,43.51 "
       id="polygon31" />
    <path
       class="cls-3"
       d="M 2,6.26 A 2,2 0 0 0 0,8.58 l 8.49,51.54 a 2.72,2.72 0 0 0 2.66,2.27 h 40.73 a 2,2 0 0 0 2,-1.68 L 62.37,8.59 a 2,2 0 0 0 -2,-2.32 z m 35.75,37.25 h -13 L 21.23,25.12 H 40.9 Z"
       id="path33" />
    <path
       class="cls-4"
       d="M 59.67,25.12 H 40.9 l -3.15,18.39 h -13 L 9.4,61.73 a 2.71,2.71 0 0 0 1.75,0.66 h 40.74 a 2,2 0 0 0 2,-1.68 z"
       id="path35"
       style="fill:url(#New_Gradient_Swatch_1)" />
  </g>
  <metadata
     id="metadata231">
    <rdf:RDF>
      <cc:Work
         rdf:about="">
        <dc:title>Bitbucket-blue</dc:title>
      </cc:Work>
    </rdf:RDF>
  </metadata>
</svg>
