<?xml version="1.0" encoding="UTF-8" standalone="no"?>
<svg
   id="svg5452"
   height="22"
   width="22"
   version="1.1"
   sodipodi:docname="battery-ac-adapter-symbolic.svg"
   inkscape:version="1.1 (c4e8f9ed74, 2021-05-24)"
   xmlns:inkscape="http://www.inkscape.org/namespaces/inkscape"
   xmlns:sodipodi="http://sodipodi.sourceforge.net/DTD/sodipodi-0.dtd"
   xmlns="http://www.w3.org/2000/svg"
   xmlns:svg="http://www.w3.org/2000/svg"
   xmlns:rdf="http://www.w3.org/1999/02/22-rdf-syntax-ns#"
   xmlns:cc="http://creativecommons.org/ns#"
   xmlns:dc="http://purl.org/dc/elements/1.1/">
  <sodipodi:namedview
     id="namedview6"
     pagecolor="#505050"
     bordercolor="#eeeeee"
     borderopacity="1"
     inkscape:pageshadow="0"
     inkscape:pageopacity="0"
     inkscape:pagecheckerboard="0"
     showgrid="false"
     inkscape:zoom="31.375"
     inkscape:cx="12"
     inkscape:cy="11.984064"
     inkscape:window-width="2560"
     inkscape:window-height="1377"
     inkscape:window-x="0"
     inkscape:window-y="0"
     inkscape:window-maximized="1"
     inkscape:current-layer="svg5452" />
  <defs
     id="defs5454" />
  <metadata
     id="metadata5457">
    <rdf:RDF>
      <cc:Work
         rdf:about="">
        <dc:format>image/svg+xml</dc:format>
        <dc:type
           rdf:resource="http://purl.org/dc/dcmitype/StillImage" />
      </cc:Work>
    </rdf:RDF>
  </metadata>
  <path
     id="path7506"
     d="M 5.1564664,-1.375e-5 C 5.043763,0.10301285 4.9282956,0.19542275 4.8177715,0.30076755 4.0360423,1.0458647 3.3196766,1.8194312 2.8942881,2.7070176 2.6820378,3.1498841 2.489304,3.7437809 2.6440584,4.3903815 2.8035482,5.0567804 3.2787359,5.4812419 3.7865215,5.6895543 4.7219388,6.0733014 5.81429,5.9889692 7.0091778,5.7957124 8.2082226,5.6017828 9.5265826,5.2596088 10.815704,4.8933686 12.104067,4.5273431 13.359247,4.1433208 14.407385,3.8949771 14.928338,3.7715441 15.132011,3.8079022 15.511935,3.771126 15.26377,4.0146014 15.150438,4.1792563 14.847183,4.4333502 13.648299,5.4378751 11.688251,7.2303592 11.07099,7.7975503 l -0.717832,-0.0025 C 5.9789906,8.1995693 3.8811076,10.646067 3.8825693,13.585721 v 3.498162 c 0,0.573094 0.4397205,1.033777 0.9857538,1.033777 h 2.8965995 v 2.588235 c 0,0.716942 -0.06988,1.294119 0.647059,1.294119 0.716941,0 0.647058,-0.577177 0.647058,-1.294119 V 18.11766 H 11.647276 V 14.23528 H 7.7649226 L 11.624528,7.8000783 h 0.02275 v 3.8469667 h 3.882353 l -3.882353,6.470588 h 2.588235 v 2.588235 c 0,0.716942 -0.06988,1.294118 0.647059,1.294118 0.716941,0 0.647059,-0.65446 0.647059,-1.294118 v -2.588235 h 2.896599 c 0.546033,0 0.985754,-0.460683 0.985754,-1.033777 V 13.585694 C 19.413284,10.864383 17.588526,8.5793913 13.79066,7.9441503 14.47871,7.3531023 14.976784,6.9176229 15.86327,6.1748485 16.596097,5.5608254 17.270519,4.9459511 17.715982,4.2589477 17.92557,3.9357085 18.202779,3.4244284 18.095116,2.7676793 18.032902,2.3880268 17.853318,2.0809332 17.609822,1.8729183 17.402852,1.6961019 17.179445,1.6062563 16.96529,1.5544441 16.133417,1.3531777 15.180816,1.5512563 14.068691,1.8147842 12.951177,2.0795628 11.679214,2.456577 10.406238,2.8182308 9.1336126,3.1797839 7.8557716,3.5245925 6.7690584,3.7003539 5.7471194,3.8656405 4.902971,3.8277884 4.4689664,3.6851884 4.6646321,3.3183052 5.2365216,2.6152831 5.917266,1.9664384 6.7539058,1.169005 7.5985496,0.49817405 8.2552716,-1.375e-5 Z"
     style="opacity:1;vector-effect:none;fill:#ffffff;fill-opacity:1;fill-rule:evenodd;stroke:none;stroke-width:1.29402;stroke-linecap:butt;stroke-linejoin:round;stroke-miterlimit:4;stroke-dasharray:none;stroke-dashoffset:0;stroke-opacity:1;marker:none" />
</svg>
