<?xml version="1.0" ?><svg id="Layer_1" style="enable-background:new 0 0 231.039368 231.039368;" version="1.1" viewBox="0 0 231.039368 231.039368" xml:space="preserve" xmlns="http://www.w3.org/2000/svg" xmlns:xlink="http://www.w3.org/1999/xlink"><style type="text/css">
	.st0{fill:#010000;}
	.st1{fill-rule:evenodd;clip-rule:evenodd;fill:#373B3C;}
	.st2{fill-rule:evenodd;clip-rule:evenodd;fill:#C01701;}
	.st3{fill-rule:evenodd;clip-rule:evenodd;fill:#770A39;}
	.st4{fill-rule:evenodd;clip-rule:evenodd;fill:#760B39;}
	.st5{fill-rule:evenodd;clip-rule:evenodd;fill:#4A646E;}
	.st6{fill-rule:evenodd;clip-rule:evenodd;fill:#98C7DC;}
	.st7{fill-rule:evenodd;clip-rule:evenodd;fill:#BD1804;}
	.st8{fill-rule:evenodd;clip-rule:evenodd;fill:#FBFDFC;}
</style><g id="_x37_rZVjN_1_"><g><path class="st0" d="M41.519688,140.990326c0-8.334,0-16.665993,0-24.999992    c0.7827-8.752899,1.114201-17.535706,0.953598-26.309105c-0.238297-12.994095,5.0298-20.044899,17.450703-21.980499    c1.148899-0.178696,2.262199-0.683998,3.4189-0.721199c7.377998-0.237297,7.4776,0.026901,8.653397-8.541    c1.338303-9.758801,4.399406-19.068798,9.653801-27.125c5.545898-8.502899,13.560005-14.763599,24.574699-14.7519    c10.484299,0.0107,21.169899-1.514199,31.413994,0.646c16.294998,3.435001,29.764709,11.4785,36.382797,27.9384    c0.701202,1.744202,1.5625,3.328701,3.0625,4.471699c7.099701,5.410702,11.125,12.599102,12.435608,21.372604c0,4,0,8,0,12    c-0.858398,4.580994-2.447296,8.748497-5.275406,12.616699c-2.498001,3.417496-1.817398,7.848099-0.941391,11.614197    c3.488297,15.008301,0.810501,29.706596-1.498108,44.465401c-1.357391,8.674805-2.974594,17.307602-4.029297,26.030197    c-0.683502,5.654297-2.009705,11.111404-5.3125,15.902405c-2.910095,4.9375-7.354401,6.902298-12.941406,6.800797    c-3.4814-0.064499-6.96579-0.001999-10.449188-0.003891c-10.080109-0.007813-12.638611-1.718811-16.503906-10.994202    c-1.738297-4.152298-2.508804-8.488312-2.488297-12.995102c0.009796-2.075211-0.3974-4.301804-3.050697-4.172806    c-2.683601,0.129807-2.007904,2.599609-2.074303,4.244095c-0.183601,4.592804,0.289101,9.226608-1.0224,13.740204    c-1.8545,10.226608-10.005402,17.724609-20.571297,18.991211c-8.708504,1.043991-16.9151-0.926712-24.625-4.679611    c-4.099098-1.995193-6.017097-6.016602-6.545403-10.571289c-0.1045-6.132813-1.219299-12.189514-1.382301-18.32431    c-0.0933-3.509689-1.785698-5.719696-5.631393-5.229401c-12.221703,1.557602-21.186005-8.025391-22.662605-20.662201    C42.173489,146.839935,42.502586,143.836029,41.519688,140.990326z"/><path class="st1" d="M133.685684,188.945435c2.694305,7.330002,7.382797,11.343689,15.729492,10.142502    c3.407211-0.489212,6.945313-0.179611,10.4189-0.075211c5.023514,0.149506,9.017609-1.50679,11.527405-6.065399    c6.721695,1.169907,13.915009,1.275406,18.158203,8.042999c0,1,0,2,0,3c-1.267609,3.25-4.029297,4.587906-7.070297,5.673798    c-10.074203,3.595703-20.585007,4.292007-31.130905,4.832001c-1.933594,0.098709-3.945297-0.5625-5.798798,0.494202    c-15.666,0-31.333496,0-47,0c-6.5317-1.06839-13.191399-0.560593-19.723595-1.577194    c-6.568901-1.0224-13.153404-2.053696-19.249603-4.903305c-2.601997-1.214798-5.111298-2.675797-5.069798-6.111298    c0.041-3.443405,2.524899-5.019501,5.247601-5.904297c4.446297-1.444305,8.6455-4.557602,13.750496-2.5811    c0.826103,6.375,4.777306,9.3936,10.671806,11.468796c11.987297,4.217804,22.895096,3.957001,33.382896-4.176804    c4.079994-3.162094,4.093697-7.240189,5.052696-11.318298C126.129082,187.738327,129.92009,188.494232,133.685684,188.945435z"/><path class="st2" d="M90.344391,38.921432c5.913094-7.413002,12.672791-12.952103,23.099594-11.510702    c3.929199,0.543001,7.965302,0.4839,11.9487,0.4268c11.248093-0.161699,20.785202,3.671301,28.513702,11.873999    c0.857391,0.909603,2.556595,1.668903,1.918991,3.143002c-0.5811,1.344799-2.301788,1.142101-3.6026,1.128899    c-8.804688-0.089298-17.626892-0.767998-26.367195,0.957603c-3.744102,0.739197-7.597595,1.121998-11.216301,2.260197    c-6.053696,1.9048-10.202095,6.408703-10.797798,12.5308c-1.128899,11.590305-1.232903,23.149899,5.136703,33.860806    c2.766098,4.652397,6.738297,7.166496,11.164497,9.378899c10.611404,5.304199,21.644592,3.965401,32.656296,1.644096    c4.702103-0.991196,9.476501-1.936096,13.955109-3.607399c4.691391-1.750504,5.117188,0.392502,4.746094,4.027298    c-0.353607,6.933105-0.873093,13.786606-2.654297,20.599106c-3.710999,14.191399-9.765701,18.886696-24.097702,21.126991    c-12.328094,1.925705-23.902298-1.091797-35.579102-3.205093c-6.709-1.213898-10.271996-7.734406-12.835892-13.6465    c-4.785202-11.035202-7.095207-22.696304-8.6436-34.704102c-1.310005-10.154297-1.067902-20.249001-1.744606-30.351601    C85.334091,55.735931,88.814087,47.545532,90.344391,38.921432z"/><path class="st3" d="M90.344391,38.921432c0.410599,4.712399-0.5186,9.241199-2.084503,13.632797    c-0.519997,1.459-0.676697,2.8848-0.748497,4.381401c-0.723602,15.138702-0.000999,30.268997,2.312996,45.183601    c1.559502,10.0513,3.587898,20.3965,8.737801,29.2939c3.545898,6.125992,7.837395,12.110397,17.058098,11.867203    c6.965797-0.184509,13.810501,3.750992,21.075195,2.642593c5.689407-0.868195,11.517502-0.320297,17.111298-2.454102    c6.094711-2.325195,9.775406-6.520493,11.823212-12.471695c2.543991-7.390602,4.047897-15.004898,4.878891-22.7612    c0.122101-1.142097-0.088791-2.365204,0.991302-3.200699c2.736298,21.716797,0.530197,43.001999-5.466797,63.9785    c-1.164108,4.072296-0.269608,8.281296-0.363297,12.425797c-0.158203,6.984406-1.129913,8.074203-7.888702,8.727509    c-1.980499,0.190491-3.951202,0.574295-5.934601,0.633789c-7.6689,0.2285-10.583893-2.448196-10.278305-10.219696    c0.212906-5.428696,0.240295-11.148407,7.489304-13.059601c3.023392-0.796799,5.541-3.323196,8.736298-6.642502    c-6.123993,0.802704-11.0186,1.125-15.936493,1.122009c-5.845703-0.004913-11.587906-0.613312-17.302803-1.747009    c-2.299805-0.455093-4.658203-0.619202-6.941399-0.037201c-2.395004,0.612396-3.9589,1.856506-4.290497,4.744202    c-0.702606,6.121109-1.094208,12.220703-0.902306,18.381805c0.268501,8.618195-4.857498,13.9776-13.627998,14.525391    c-4.625397,0.289108-8.838799-1.116196-12.989197-2.946289c-1.642105-0.724609-1.954605-1.928711-2.162605-3.537109    c-4.1856-32.400391-4.398499-64.949196-4.033195-97.544395c0.159195-14.149399,1.8965-28.024399,5.438896-41.656799    C86.234489,47.612831,88.546089,43.33403,90.344391,38.921432z"/><path class="st4" d="M69.40049,90.899033c0.0625,16.971199,0.079201,33.942795,0.225098,50.912598    c0.0298,3.472595,0.634804,6.936493,0.813004,10.413101c0.337898,6.574203-3.238205,8.863205-9.406704,5.974594    c-4.778801-2.238297-7.019501-5.503891-7.904301-11.347702c-2.725597-18.003891-0.3647-35.785095,0.5522-53.649391    c0.023003-0.440903,0.4473-0.861305,0.684101-1.291504c2.493698,0.150406,4.7686-0.766602,7.1143-1.394997    C64.133888,89.803833,66.848289,88.996628,69.40049,90.899033z"/><path class="st5" d="M179.58609,71.941032c1.703094,6.417397-1.274414,13.284096-8.365204,16.725601    c-12.166107,5.905197-24.964905,9.2006-38.606506,6.071693c-6.745094-1.547295-12.090797-5.6875-16.447197-10.772896    c-5.453697-6.364799-3.736397-21.757301,2.527298-26.7896c2.210007,1.1231,2.522507,3.355499,3.130905,5.399899    c3.635696,12.224205,8.778297,16.105003,21.602501,16.035202c8.458008-0.045898,16.832001-1.1987,25.214798-2.193398    C172.728683,75.932732,175.925888,73.39753,179.58609,71.941032z"/><path class="st6" d="M179.58609,71.941032c-2.4561,4.527298-7.090805,5.523399-11.400406,6.034599    c-9.0439,1.073799-18.126007,2.0298-27.279297,1.9263c-10.699203-0.120598-16.957001-4.792999-19.8769-15.121101    c-0.720703-2.5513-1.552803-5.070801-2.335007-7.605c10.026405-2.0639,19.965797-5.046799,30.336906-4.275402    c7.613297,0.566402,15.032196,2.411201,21.5811,6.541103C175.203278,62.336029,178.691589,66.27153,179.58609,71.941032z"/><path class="st7" d="M69.40049,90.899033c-3.861305-0.069405-7.572701,0.584-11.199203,1.975998    c-1.298798,0.498604-3.229,1.947304-3.836399-0.964798c0.223598-1.632805,0.382801-3.278801,0.684101-4.897499    c1.338398-7.183105,6.744598-10.307602,13.680702-8.091805c1.833397,0.585503,1.599594,1.828201,1.493599,3.118698    C69.980087,84.995232,69.678391,87.946327,69.40049,90.899033z"/><path class="st8" d="M159.213989,68.986931c-4.932602-0.544998-11.313507-1.335503-17.713806-1.921402    c-3.355499-0.307098-4.048904-2.486298-4.054703-5.170399c-0.004898-3.119701,1.987305-4.961498,4.770508-5.409199    c7.691391-1.237301,15.080994,0.765598,22.426697,2.703598c1.591797,0.420403,3.048904,1.349602,4.084,2.734901    c1,1.338299,2.150406,2.742599,1.367203,4.518997c-0.80571,1.823303-2.30571,2.713905-4.412109,2.566406    C164.025482,68.894127,162.355591,68.986931,159.213989,68.986931z"/></g></g></svg>