<?xml version="1.0" encoding="UTF-8" standalone="no"?>
<svg
   xmlns:dc="http://purl.org/dc/elements/1.1/"
   xmlns:cc="http://creativecommons.org/ns#"
   xmlns:rdf="http://www.w3.org/1999/02/22-rdf-syntax-ns#"
   xmlns:svg="http://www.w3.org/2000/svg"
   xmlns="http://www.w3.org/2000/svg"
   xmlns:sodipodi="http://sodipodi.sourceforge.net/DTD/sodipodi-0.dtd"
   xmlns:inkscape="http://www.inkscape.org/namespaces/inkscape"
   inkscape:export-ydpi="96"
   inkscape:export-xdpi="96"
   inkscape:export-filename="/home/lucas/sites/lucasbrum.net/img/logo-fundo.png"
   inkscape:version="1.0 (4035a4fb49, 2020-05-01)"
   sodipodi:docname="logo.svg"
   viewBox="0 0 525 525"
   height="525"
   width="525"
   xml:space="preserve"
   id="svg2"
   version="1.1"><metadata
     id="metadata8"><rdf:RDF><cc:Work
         rdf:about=""><dc:format>image/svg+xml</dc:format><dc:type
           rdf:resource="http://purl.org/dc/dcmitype/StillImage" /><dc:title></dc:title></cc:Work></rdf:RDF></metadata><defs
     id="defs6" /><sodipodi:namedview
     inkscape:current-layer="g10"
     inkscape:window-maximized="1"
     inkscape:window-y="0"
     inkscape:window-x="0"
     inkscape:cy="242"
     inkscape:cx="214.55319"
     inkscape:zoom="1"
     showgrid="false"
     id="namedview4"
     inkscape:window-height="1025"
     inkscape:window-width="1920"
     inkscape:pageshadow="2"
     inkscape:pageopacity="0"
     guidetolerance="10"
     gridtolerance="10"
     objecttolerance="10"
     borderopacity="1"
     bordercolor="#666666"
     pagecolor="#ffffff"
     inkscape:document-rotation="0" /><g
     transform="matrix(1.3333333,0,0,-1.3333333,0,666.66667)"
     inkscape:label="ink_ext_XXXXXX"
     inkscape:groupmode="layer"
     id="g10"><g
       transform="translate(0,-19.047055)"
       id="g1124"><g
         id="g105"
         transform="matrix(2.0507812,0,0,2.0507812,3.9267732e-6,-506.34356)"><path
           d="m 144.61936,464.96348 c -3.51571,2.63455 -6.0936,2.77172 -8.72666,2.5272 -2.62113,-0.20426 -4.97091,-0.25496 -8.65212,1.3866 -3.58131,1.85626 -4.99625,3.7334 -6.4738,5.90277 -0.75443,1.03026 -1.49247,2.2126 -2.64946,3.05649 -1.14954,0.87073 -2.64648,1.64305 -4.76962,2.18577 -0.5293,0.13567 -1.03176,0.23855 -1.50738,0.31608 -0.48158,0.0567 -0.94378,0.0447 -1.37766,0.0358 -0.87371,-0.0298 -1.65199,-0.14761 -2.36319,-0.32056 -1.42239,-0.34591 -2.5764,-0.92142 -3.70059,-1.50141 -2.26032,-1.22111 -4.37899,-2.71656 -8.399694,-2.47353 -4.01967,-0.24303 -6.13804,1.25242 -8.3994,2.47353 -1.12419,0.57999 -2.27731,1.1555 -3.70015,1.50141 -0.71164,0.17295 -1.48918,0.29074 -2.36289,0.32056 -0.43387,0.009 -0.89682,0.0209 -1.37736,-0.0358 -0.47577,-0.0775 -0.97838,-0.18041 -1.50842,-0.31608 -2.12285,-0.54272 -3.61963,-1.31504 -4.76813,-2.18577 -1.15789,-0.84389 -1.89577,-2.02623 -2.65065,-3.05649 -1.47756,-2.16937 -2.89279,-4.04651 -6.47351,-5.90277 -3.68196,-1.64156 -6.03024,-1.59086 -8.65286,-1.3866 -2.63246,0.24452 -5.2108,0.10735 -8.72562,-2.5272 -0.89876,-0.6277 -1.54047,-1.3538 -2.06067,-2.05456 -0.52527,-0.69479 -0.92485,-1.3717 -1.23647,-2.0322 -0.62248,-1.31951 -0.8998,-2.57491 -1.15252,-3.80794 -0.18235,-1.3046 -0.34427,-2.58535 -0.79275,-3.90784 -0.22409,-0.66199 -0.52124,-1.33442 -0.93186,-2.02623 -0.41464,-0.68734 -0.9493,-1.38959 -1.52705,-2.22304 -2.40643,-3.22647 -4.88935,-3.95257 -7.1695,-5.01862 -2.30042,-1.02281 -4.93407,-2.05605 -6.74024,-6.06975 -2.01341,-3.91529 -1.19039,-6.61545 -0.54972,-9.05617 0.37274,-1.24496 0.61085,-2.41239 0.85731,-3.82136 0.21724,-1.40003 0.20203,-2.96108 -0.30401,-4.91425 -0.12524,-0.49053 -0.26793,-0.94229 -0.42105,-1.36722 -0.13583,-0.42642 -0.24183,-0.83196 -0.38735,-1.20769 -0.27777,-0.75294 -0.6116,-1.4045 -0.98315,-1.99343 -0.7437,-1.17787 -1.63769,-2.10376 -2.53466,-3.06395 -1.72967,-1.91292 -3.22184,-4.01817 -3.46934,-8.39865 0.2475,-4.38197 1.73967,-6.48722 3.46934,-8.40014 0.89697,-0.96019 1.79096,-1.88608 2.53466,-3.06395 0.37155,-0.58894 0.70538,-1.239 0.98315,-1.99343 0.14552,-0.37573 0.25152,-0.78127 0.38735,-1.20769 0.15312,-0.42493 0.29581,-0.87669 0.42105,-1.36573 0.50604,-1.95467 0.52125,-3.51571 0.30401,-4.91574 -0.24646,-1.40897 -0.48457,-2.5764 -0.85731,-3.82136 -0.64067,-2.44072 -1.46369,-5.14088 0.54972,-9.05617 1.80617,-4.01221 4.43982,-5.04545 6.74024,-6.06975 2.28015,-1.06456 4.76307,-1.79215 7.1695,-5.01862 0.57775,-0.83345 1.11241,-1.5357 1.52705,-2.22304 0.41062,-0.6933 0.70777,-1.36424 0.93186,-2.02623 0.44848,-1.32249 0.6104,-2.60324 0.79275,-3.90784 0.25272,-1.23303 0.53004,-2.48843 1.15252,-3.80794 0.31162,-0.66051 0.7112,-1.33741 1.23647,-2.0322 0.5202,-0.70076 1.16191,-1.42686 2.06067,-2.05307 3.51482,-2.63604 6.09316,-2.77321 8.72562,-2.52869 2.62262,0.20426 4.9709,0.25496 8.65286,-1.3866 3.58072,-1.85478 4.99595,-3.7334 6.47351,-5.90277 0.75488,-1.03026 1.49276,-2.21409 2.65065,-3.05649 1.1485,-0.87073 2.64528,-1.64305 4.76813,-2.18577 0.53004,-0.13568 1.03265,-0.23855 1.50842,-0.31608 0.48054,-0.0567 0.94349,-0.0447 1.37736,-0.0343 0.87371,0.0283 1.65125,0.14612 2.36289,0.31907 1.42284,0.34591 2.57596,0.92142 3.70015,1.50141 2.26136,1.2226 4.37973,2.71655 8.3994,2.47353 4.020704,0.24302 6.139374,-1.25093 8.399694,-2.47353 1.12419,-0.57999 2.2782,-1.1555 3.70059,-1.50141 0.7112,-0.17295 1.48948,-0.29074 2.36319,-0.31907 0.43388,-0.0104 0.89608,-0.0224 1.37766,0.0343 0.47562,0.0775 0.97808,0.1804 1.50738,0.31608 2.12314,0.54272 3.62008,1.31504 4.76962,2.18577 1.15699,0.8424 1.89503,2.02623 2.64946,3.05649 1.47755,2.16937 2.89249,4.04799 6.4738,5.90277 3.68121,1.64156 6.03099,1.59086 8.65212,1.3866 2.63306,-0.24452 5.21095,-0.10735 8.72666,2.52869 0.89757,0.62621 1.54018,1.35231 2.06053,2.05307 0.52482,0.69479 0.9244,1.37169 1.23601,2.0322 0.62323,1.31951 0.89906,2.57491 1.15253,3.80794 0.18189,1.3046 0.34441,2.58535 0.79319,3.90784 0.22365,0.66199 0.52035,1.33293 0.93186,2.02623 0.41449,0.68734 0.94826,1.38959 1.52676,2.22304 2.40643,3.22647 4.8889,3.95406 7.17009,5.01862 2.30057,1.0243 4.93363,2.05754 6.73919,6.06975 2.01431,3.91529 1.19129,6.61545 0.55017,9.05617 -0.37274,1.24496 -0.6113,2.41239 -0.85731,3.82136 -0.21768,1.40003 -0.20277,2.96107 0.30416,4.91574 0.12524,0.48904 0.26838,0.9408 0.42046,1.36573 0.13568,0.42642 0.24153,0.83196 0.38765,1.20769 0.27881,0.75443 0.6113,1.40449 0.98255,1.99343 0.744,1.17787 1.63858,2.10376 2.53465,3.06395 1.73102,1.91292 3.22498,4.01817 3.47099,8.40014 -0.24601,4.38048 -1.73997,6.48573 -3.47099,8.39865 -0.89607,0.96019 -1.79065,1.88608 -2.53465,3.06395 -0.37125,0.58893 -0.70374,1.24049 -0.98255,1.99343 -0.14612,0.37573 -0.25197,0.78127 -0.38765,1.20769 -0.15208,0.42493 -0.29522,0.87669 -0.42046,1.36722 -0.50693,1.95317 -0.52184,3.51422 -0.30416,4.91425 0.24601,1.40897 0.48457,2.5764 0.85731,3.82136 0.64112,2.44072 1.46414,5.14088 -0.55017,9.05617 -1.80556,4.0137 -4.43862,5.04694 -6.73919,6.06975 -2.28119,1.06605 -4.76366,1.79215 -7.17009,5.01862 -0.5785,0.83345 -1.11227,1.5357 -1.52676,2.22304 -0.41151,0.69181 -0.70821,1.36424 -0.93186,2.02623 -0.44878,1.32249 -0.6113,2.60324 -0.79319,3.90784 -0.25347,1.23303 -0.5293,2.48843 -1.15253,3.80794 -0.31161,0.6605 -0.71119,1.33741 -1.23601,2.0322 -0.52035,0.70076 -1.16296,1.42686 -2.06053,2.05456"
           style="fill:#53c16b;fill-opacity:1;fill-rule:nonzero;stroke:none;stroke-width:0.149097"
           id="path24" /><path
           d="m 144.61935,464.96346 c -3.51571,2.63455 -6.0936,2.77172 -8.72666,2.5272 -2.62113,-0.20426 -4.97091,-0.25496 -8.65212,1.3866 -3.58131,1.85626 -4.99625,3.7334 -6.4738,5.90277 -0.75443,1.03026 -1.49247,2.2126 -2.64946,3.05649 -1.14954,0.87073 -2.64648,1.64305 -4.76962,2.18577 -0.5293,0.13567 -1.03176,0.23855 -1.50738,0.31608 -0.48158,0.0567 -0.94378,0.0447 -1.37766,0.0358 -0.87371,-0.0298 -1.65199,-0.14761 -2.36319,-0.32056 -1.42239,-0.34591 -2.5764,-0.92142 -3.70059,-1.50141 -2.26032,-1.22111 -4.37899,-2.71656 -8.3997,-2.47353 -4.01966,-0.24303 -6.13804,1.25242 -8.3994,2.47353 -1.12419,0.57999 -2.27731,1.1555 -3.70014,1.50141 -0.71165,0.17295 -1.48919,0.29074 -2.3629,0.32056 -0.43387,0.009 -0.89682,0.0209 -1.37736,-0.0358 -0.47577,-0.0775 -0.97837,-0.18041 -1.50842,-0.31608 -2.12284,-0.54272 -3.61963,-1.31504 -4.76813,-2.18577 -1.15789,-0.84389 -1.89577,-2.02623 -2.65065,-3.05649 -1.47755,-2.16937 -2.89278,-4.04651 -6.4735,-5.90277 -3.68196,-1.64156 -6.03024,-1.59086 -8.65287,-1.3866 -2.63246,0.24452 -5.2108,0.10735 -8.72562,-2.5272 -0.89876,-0.6277 -1.54047,-1.3538 -2.06067,-2.05456 -0.52527,-0.69479 -0.92485,-1.3717 -1.23646,-2.0322 -0.62249,-1.31951 -0.89981,-2.57491 -1.15253,-3.80794 -0.18234,-1.3046 -0.34426,-2.58535 -0.79275,-3.90784 -0.22409,-0.66199 -0.52124,-1.33442 -0.93185,-2.02623 -0.41464,-0.68734 -0.94931,-1.38959 -1.52706,-2.22304 -2.40643,-3.22647 -4.88935,-3.95257 -7.16949,-5.01862 -2.30042,-1.02281 -4.93408,-2.05605 -6.74024,-6.06975 -2.01341,-3.91529 -1.1904,-6.61545 -0.54972,-9.05617 0.37274,-1.24496 0.61085,-2.41239 0.85731,-3.82136 0.21723,-1.40003 0.20202,-2.96108 -0.30401,-4.91425 -0.12525,-0.49053 -0.26793,-0.94229 -0.42105,-1.36722 -0.13583,-0.42642 -0.24184,-0.83196 -0.38736,-1.20769 -0.27777,-0.75294 -0.6116,-1.4045 -0.98315,-1.99343 -0.74369,-1.17787 -1.63768,-2.10376 -2.53465,-3.06395 -1.72968,-1.91292 -3.22184,-4.01817 -3.46935,-8.39865 0.24751,-4.38197 1.73967,-6.48722 3.46935,-8.40014 0.89697,-0.96019 1.79096,-1.88608 2.53465,-3.06395 0.37155,-0.58894 0.70538,-1.239 0.98315,-1.99343 0.14552,-0.37573 0.25153,-0.78127 0.38736,-1.20769 0.15312,-0.42493 0.2958,-0.87669 0.42105,-1.36573 0.50603,-1.95467 0.52124,-3.51571 0.30401,-4.91574 -0.24646,-1.40897 -0.48457,-2.5764 -0.85731,-3.82136 -0.64068,-2.44072 -1.46369,-5.14088 0.54972,-9.05617 1.80616,-4.01221 4.43982,-5.04545 6.74024,-6.06975 2.28014,-1.06456 4.76306,-1.79215 7.16949,-5.01862 0.57775,-0.83345 1.11242,-1.5357 1.52706,-2.22304 0.41061,-0.6933 0.70776,-1.36424 0.93185,-2.02623 0.44849,-1.32249 0.61041,-2.60324 0.79275,-3.90784 0.25272,-1.23303 0.53004,-2.48843 1.15253,-3.80794 0.31161,-0.66051 0.71119,-1.33741 1.23646,-2.0322 0.5202,-0.70076 1.16191,-1.42686 2.06067,-2.05307 3.51482,-2.63604 6.09316,-2.77321 8.72562,-2.52869 2.62263,0.20426 4.97091,0.25496 8.65287,-1.3866 3.58072,-1.85478 4.99595,-3.7334 6.4735,-5.90277 0.75488,-1.03026 1.49276,-2.21409 2.65065,-3.05649 1.1485,-0.87073 2.64529,-1.64305 4.76813,-2.18577 0.53005,-0.13568 1.03265,-0.23855 1.50842,-0.31608 0.48054,-0.0567 0.94349,-0.0447 1.37736,-0.0343 0.87371,0.0283 1.65125,0.14612 2.3629,0.31907 1.42283,0.34591 2.57595,0.92142 3.70014,1.50141 2.26136,1.2226 4.37974,2.71655 8.3994,2.47353 4.02071,0.24302 6.13938,-1.25093 8.3997,-2.47353 1.12419,-0.57999 2.2782,-1.1555 3.70059,-1.50141 0.7112,-0.17295 1.48948,-0.29074 2.36319,-0.31907 0.43388,-0.0104 0.89608,-0.0224 1.37766,0.0343 0.47562,0.0775 0.97808,0.1804 1.50738,0.31608 2.12314,0.54272 3.62008,1.31504 4.76962,2.18577 1.15699,0.8424 1.89503,2.02623 2.64946,3.05649 1.47755,2.16937 2.89249,4.04799 6.4738,5.90277 3.68121,1.64156 6.03099,1.59086 8.65212,1.3866 2.63306,-0.24452 5.21095,-0.10735 8.72666,2.52869 0.89757,0.62621 1.54018,1.35231 2.06053,2.05307 0.52482,0.69479 0.9244,1.37169 1.23601,2.0322 0.62323,1.31951 0.89906,2.57491 1.15253,3.80794 0.18189,1.3046 0.34441,2.58535 0.79319,3.90784 0.22365,0.66199 0.52035,1.33293 0.93186,2.02623 0.41449,0.68734 0.94826,1.38959 1.52676,2.22304 2.40643,3.22647 4.8889,3.95406 7.17009,5.01862 2.30057,1.0243 4.93363,2.05754 6.73919,6.06975 2.01431,3.91529 1.19129,6.61545 0.55017,9.05617 -0.37274,1.24496 -0.6113,2.41239 -0.85731,3.82136 -0.21768,1.40003 -0.20277,2.96107 0.30416,4.91574 0.12524,0.48904 0.26838,0.9408 0.42046,1.36573 0.13568,0.42642 0.24153,0.83196 0.38765,1.20769 0.27881,0.75443 0.6113,1.40449 0.98255,1.99343 0.744,1.17787 1.63858,2.10376 2.53465,3.06395 1.73102,1.91292 3.22498,4.01817 3.47099,8.40014 -0.24601,4.38048 -1.73997,6.48573 -3.47099,8.39865 -0.89607,0.96019 -1.79065,1.88608 -2.53465,3.06395 -0.37125,0.58893 -0.70374,1.24049 -0.98255,1.99343 -0.14612,0.37573 -0.25197,0.78127 -0.38765,1.20769 -0.15208,0.42493 -0.29522,0.87669 -0.42046,1.36722 -0.50693,1.95317 -0.52184,3.51422 -0.30416,4.91425 0.24601,1.40897 0.48457,2.5764 0.85731,3.82136 0.64112,2.44072 1.46414,5.14088 -0.55017,9.05617 -1.80556,4.0137 -4.43862,5.04694 -6.73919,6.06975 -2.28119,1.06605 -4.76366,1.79215 -7.17009,5.01862 -0.5785,0.83345 -1.11227,1.5357 -1.52676,2.22304 -0.41151,0.69181 -0.70821,1.36424 -0.93186,2.02623 -0.44878,1.32249 -0.6113,2.60324 -0.79319,3.90784 -0.25347,1.23303 -0.5293,2.48843 -1.15253,3.80794 -0.31161,0.6605 -0.71119,1.33741 -1.23601,2.0322 -0.52035,0.70076 -1.16296,1.42686 -2.06053,2.05456 z"
           style="fill:none;stroke:#4f2a2d;stroke-width:2.98195;stroke-linecap:butt;stroke-linejoin:round;stroke-miterlimit:10;stroke-dasharray:none;stroke-opacity:1"
           id="path26" /></g><path
         id="path1139"
         d="m 188.3025,224.17434 c -24.61601,2.30717 -46.94348,13.2405 -63.51351,31.10132 -14.64585,15.78677 -23.55596,35.57374 -25.834017,57.37044 -0.438662,4.19717 -0.436388,15.13774 0.0041,19.1688 2.521087,23.07732 12.157877,43.55281 28.030597,59.55719 15.81845,15.94966 36.11702,25.80504 58.86586,28.58061 4.5275,0.5524 18.58427,0.47205 23.11131,-0.13207 22.32244,-2.97901 41.93677,-12.59235 57.50638,-28.18489 16.11447,-16.13822 25.7232,-36.4446 28.30644,-59.82082 0.44523,-4.02888 0.44523,-15.27584 0,-19.30474 -1.8271,-16.53365 -7.06482,-31.26777 -15.78943,-44.41703 -16.68186,-25.14194 -42.97146,-40.95449 -72.85403,-43.81984 -4.48227,-0.4298 -13.75469,-0.48124 -17.8336,-0.0988 z"
         style="fill:#ffffff;fill-opacity:1;stroke-width:0.271899" /><g
         transform="matrix(2.0507812,0,0,2.0507812,216.7837,-752.89473)"
         id="g1127"><path
           id="path76"
           style="fill:#41a0cd;fill-opacity:1;fill-rule:nonzero;stroke:none;stroke-width:0.0473757"
           d="m 18.70024,488.39552 c 0,-10.07965 -8.17179,-18.25148 -18.25206,-18.25148 h -14.31357 c -10.08008,0 -18.25167,8.17183 -18.25167,18.25148 v 1.29099 c 0,10.07965 8.17159,18.25196 18.25167,18.25196 H 0.44818 c 10.08027,0 18.25206,-8.17231 18.25206,-18.25196 v -1.29099" /><path
           id="path78"
           style="fill:#3e96bf;fill-opacity:1;fill-rule:nonzero;stroke:none;stroke-width:0.0473757"
           d="m 0.44818,507.93847 h -7.15685 v -37.79443 h 7.15685 c 10.08027,0 18.25206,8.17183 18.25206,18.25148 v 1.29099 c 0,10.07965 -8.17179,18.25196 -18.25206,18.25196" /><path
           id="path80"
           style="fill:#e49b74;fill-opacity:1;fill-rule:nonzero;stroke:none;stroke-width:0.0473757"
           d="m 1.7675,504.17447 c 0.004,-5.65997 -8.46694,-11.27826 -8.46694,-11.27826 0,0 -8.481,5.6055 -8.48527,11.26595 -0.004,5.65997 3.63812,7.15752 8.46879,7.16131 4.83047,0.003 8.47954,-1.48855 8.48342,-7.149" /><path
           id="path82"
           style="fill:#f8a57c;fill-opacity:1;fill-rule:nonzero;stroke:none;stroke-width:0.0473757"
           d="m 0.51759,505.68292 c 0,-3.99141 -3.23505,-7.22669 -7.22612,-7.22669 v 0 c -3.99084,0 -7.22626,3.23528 -7.22626,7.22669 v 11.28062 c 0,3.99141 3.23542,7.22622 7.22626,7.22622 v 0 c 3.99107,0 7.22612,-3.23481 7.22612,-7.22622 v -11.28062" /><path
           id="path84"
           style="fill:#e49b74;fill-opacity:1;fill-rule:nonzero;stroke:none;stroke-width:0.0473757"
           d="m -6.70853,524.18976 c -3.99084,0 -7.22626,-3.23481 -7.22626,-7.22622 v -6.12046 c 2.08325,-0.73433 4.56251,-1.16118 7.22626,-1.16118 2.6636,0 5.14325,0.42685 7.22612,1.16118 v 6.12046 c 0,3.99141 -3.23505,7.22622 -7.22612,7.22622" /><path
           id="path86"
           style="fill:#532518;fill-opacity:1;fill-rule:nonzero;stroke:none;stroke-width:0.0473757"
           d="m 18.70024,533.53414 c 0,0 -1.87087,-9.63006 -8.36314,-12.22625 -0.59812,2.16555 4.63799,25.8894 8.0642,24.12418 0.15966,-1.34878 0.61825,-10.77986 0.29894,-11.89793" /><path
           id="path88"
           style="fill:#f8a57c;fill-opacity:1;fill-rule:nonzero;stroke:none;stroke-width:0.0473757"
           d="m 17.8579,538.46737 c 0,-14.81769 -12.01239,-26.83028 -26.83028,-26.83028 -14.81784,0 -26.83036,12.01259 -26.83036,26.83028 0,14.81817 12.01252,26.83076 26.83036,26.83076 14.81789,0 26.83028,-12.01259 26.83028,-26.83076" /><path
           id="path90"
           style="fill:#f8a57c;fill-opacity:1;fill-rule:nonzero;stroke:none;stroke-width:0.0473757"
           d="m 25.39822,538.46737 c 0,-3.10121 -2.51423,-5.61544 -5.61592,-5.61544 -3.10074,0 -5.61497,2.51423 -5.61497,5.61544 0,3.10169 2.51423,5.61592 5.61497,5.61592 3.10169,0 5.61592,-2.51423 5.61592,-5.61592" /><path
           id="path92"
           style="fill:#ffffff;fill-opacity:1;fill-rule:nonzero;stroke:none;stroke-width:0.0473757"
           d="m 3.02978,532.23226 c 0,-7.31955 -5.93418,-13.25383 -13.25392,-13.25383 -7.31955,0 -13.25335,5.93428 -13.25335,13.25383 H 3.02978" /><path
           id="path94"
           style="fill:#1d1e1f;fill-opacity:1;fill-rule:nonzero;stroke:none;stroke-width:0.0473757"
           d="m -23.26411,541.40609 c -1.66,0 -3.00594,-1.34547 -3.00594,-3.00599 0,-1.66005 1.34594,-3.00552 3.00594,-3.00552 1.66,0 3.0058,1.34547 3.0058,3.00552 0,1.66052 -1.3458,3.00599 -3.0058,3.00599" /><path
           id="path96"
           style="fill:#1d1e1f;fill-opacity:1;fill-rule:nonzero;stroke:none;stroke-width:0.0473757"
           d="m 1.25968,541.40609 c -1.66,0 -3.00575,-1.34547 -3.00575,-3.00599 0,-1.66005 1.34575,-3.00552 3.00575,-3.00552 1.66,0 3.00613,1.34547 3.00613,3.00552 0,1.66052 -1.34613,3.00599 -3.00613,3.00599" /><path
           id="path98"
           style="fill:#532518;fill-opacity:1;fill-rule:nonzero;stroke:none;stroke-width:0.0473757"
           d="m 5.95637,554.73808 c 0,0 8.85575,-11.74017 12.65907,-11.06791 -1.16544,15.33504 -10.65859,24.47429 -27.59189,24.47429 -13.91069,0 -24.63294,-10.52262 -26.82629,-23.81198 3.49988,0.0256 26.40009,-1.58471 41.75911,10.4056" /><path
           id="path100"
           style="fill:#532518;fill-opacity:1;fill-rule:nonzero;stroke:none;stroke-width:0.0473757"
           d="m 6.47177,557.37407 c 0,0 0.0881,-0.13076 0.15728,-0.41833 0.0685,-0.28473 0.11475,-0.73243 0.005,-1.28578 -0.10641,-0.55098 -0.35162,-1.20429 -0.77038,-1.86423 -0.41032,-0.66658 -0.97305,-1.34784 -1.65909,-2.00636 -0.6825,-0.66326 -1.47827,-1.31563 -2.36955,-1.92346 -0.88829,-0.61209 -1.85225,-1.21329 -2.88712,-1.75527 -0.13767,-0.0725 -0.23783,-0.13265 -0.40786,-0.21508 l -0.39052,-0.19187 c -0.26056,-0.12839 -0.51923,-0.25867 -0.81552,-0.37901 -0.57685,-0.25914 -1.15516,-0.47612 -1.74182,-0.67937 -1.177,-0.39274 -2.38896,-0.72437 -3.60685,-0.98636 -1.21898,-0.26151 -2.44132,-0.47612 -3.64774,-0.64099 -1.20476,-0.17529 -2.39598,-0.28378 -3.54503,-0.39085 -1.14886,-0.11181 -2.26238,-0.16629 -3.31705,-0.22077 -1.05411,-0.0502 -2.05175,-0.0824 -2.97264,-0.0886 -0.92013,-0.0208 -1.76456,-0.0156 -2.51276,-0.003 -0.74764,0.003 -1.40052,0.0261 -1.93776,0.046 -1.07486,0.0393 -1.68942,0.0843 -1.68942,0.0843 0,0 0.60513,0.12081 1.66516,0.29326 1.06003,0.17387 2.57459,0.41075 4.38912,0.66752 1.80895,0.25773 3.91959,0.55904 6.18102,0.88166 1.12721,0.15824 2.28403,0.36053 3.45809,0.54909 1.1716,0.20229 2.35746,0.41359 3.52708,0.67321 1.17439,0.24303 2.32453,0.55003 3.4425,0.87929 0.55387,0.18145 1.10443,0.35248 1.61632,0.54814 0.25687,0.0858 0.52871,0.20419 0.79705,0.31836 l 0.40047,0.17008 c 0.0924,0.0374 0.24578,0.11418 0.36498,0.16866 1.0145,0.48276 1.99366,0.95178 2.88286,1.45964 0.88701,0.51071 1.70813,1.02048 2.41578,1.55393 0.70196,0.53724 1.31581,1.07116 1.78123,1.61124 0.46452,0.53961 0.8015,1.06833 0.99176,1.54492 0.1869,0.47613 0.25427,0.88735 0.24593,1.16829 -0.002,0.28283 -0.0505,0.43207 -0.0505,0.43207" /><path
           id="path102-0"
           style="fill:#255b78;fill-opacity:1;fill-rule:nonzero;stroke:none;stroke-width:0.0473757"
           d="m -10.52133,499.54918 3.82189,-6.65297 -8.10219,4.91097 z" /><path
           id="path104-6"
           style="fill:#3885ad;fill-opacity:1;fill-rule:nonzero;stroke:none;stroke-width:0.0473757"
           d="m -13.93479,510.22625 -4.73866,-2.92972 2.36949,-15.24976 5.78263,7.50241 -3.41346,10.67707" /><path
           id="path106-8"
           style="fill:#21536d;fill-opacity:1;fill-rule:nonzero;stroke:none;stroke-width:0.0473757"
           d="m -2.88683,499.54918 -3.82151,-6.65297 8.10219,4.91097 z" /><path
           id="path108-9"
           style="fill:#357fa5;fill-opacity:1;fill-rule:nonzero;stroke:none;stroke-width:0.0473757"
           d="m 0.52721,510.22625 4.73813,-2.92972 -2.36897,-15.24976 -5.7832,7.50241 3.41404,10.67707" /></g><path
         id="path34"
         style="fill:none;stroke:#4f2a2d;stroke-width:6.11533;stroke-linecap:butt;stroke-linejoin:round;stroke-miterlimit:10;stroke-dasharray:none;stroke-opacity:1"
         d="m 298.32339,322.1736 c 0,-56.03466 -45.41541,-101.45007 -101.44917,-101.45007 -56.03159,0 -101.448537,45.41541 -101.448537,101.45007 0,56.03161 45.416947,101.44702 101.448537,101.44702 56.03376,0 101.44917,-45.41541 101.44917,-101.44702 z" /><path
         id="path30"
         style="fill:none;stroke:#4f2a2d;stroke-width:6.11533;stroke-linecap:butt;stroke-linejoin:round;stroke-miterlimit:10;stroke-dasharray:none;stroke-opacity:1"
         d="m 321.77258,322.1736 c 0,-68.98079 -55.92154,-124.89926 -124.89836,-124.89926 -68.97864,0 -124.8968,55.91847 -124.8968,124.89926 0,68.97774 55.91816,124.89621 124.8968,124.89621 68.97682,0 124.89836,-55.91847 124.89836,-124.89621 z" /><path
         id="path1137"
         d="m 188.3025,200.66072 c -0.44864,0.05 -2.28394,0.22632 -4.07847,0.39178 -4.39377,0.40509 -11.64224,1.65397 -16.44982,2.83426 -27.19329,6.67607 -51.23781,22.58045 -68.311935,45.18529 -11.451587,15.16104 -19.424719,33.60541 -22.622746,52.33356 -1.298208,7.60253 -1.617888,11.70389 -1.617888,20.75692 0,9.06944 0.322984,13.20028 1.622949,20.7569 7.522824,43.72975 38.55186,80.12277 80.58275,94.5131 22.91811,7.84658 48.51299,8.62505 71.82984,2.1847 36.60561,-10.11082 66.48532,-36.80139 80.65647,-72.04778 4.11005,-10.22249 6.72931,-20.74501 8.12167,-32.62774 0.66859,-5.70583 0.67589,-19.51442 0.0123,-25.368 -1.68576,-14.89573 -5.46349,-28.04298 -11.70215,-40.72593 -2.94859,-5.99436 -4.2203,-8.214 -7.93166,-13.84401 -20.58088,-31.22033 -54.24275,-51.15524 -91.57023,-54.22883 -3.13345,-0.258 -16.51369,-0.34043 -18.54222,-0.11422 z m 20.12043,17.62943 c 12.6486,1.50189 23.53644,4.68085 34.53101,10.0821 20.75186,10.19465 37.22972,26.66907 47.57765,47.56766 5.98482,12.08689 9.2488,23.71103 10.49768,37.38593 0.4108,4.49808 0.15956,17.87219 -0.4105,21.84701 -1.0404,7.25497 -2.17641,12.44498 -3.99642,18.25792 -6.13134,19.58301 -18.17082,37.23556 -34.19124,50.13198 -24.87591,20.02504 -57.3438,27.56796 -88.5392,20.56936 -38.17751,-8.56503 -68.55572,-38.06246 -78.278215,-76.0086 -1.018627,-3.97562 -2.107824,-9.8571 -2.667745,-14.40534 -0.221578,-1.79987 -0.351462,-6.12054 -0.351462,-11.69161 0,-9.64363 0.235751,-12.3132 1.794224,-20.31717 7.639408,-39.23427 38.046018,-71.1724 77.056128,-80.93726 5.41247,-1.35483 13.49001,-2.60392 19.30474,-2.98524 3.29506,-0.21607 14.24002,0.0956 17.67335,0.50326 z"
         style="fill:#dec4a0;fill-opacity:1;stroke-width:0.271899" /></g><g
       transform="translate(0,-26.094531)"
       id="g1097"><path
         id="path16"
         style="fill:#8d463c;fill-opacity:1;fill-rule:nonzero;stroke:none;stroke-width:0.305765"
         d="m 95.798474,149.68576 c -25.882479,-3.45516 -51.63379,-8.24652 -77.147497,-14.36794 4.192351,13.16934 8.73237,26.31421 13.604431,39.43156 -9.746276,10.02912 -19.802015,19.88702 -30.1693084,29.56146 27.8892294,6.69627 56.0291674,11.93405 84.3125164,15.71026 3.127975,-23.44308 6.263311,-46.88921 9.399858,-70.33534" /><path
         id="path18"
         style="fill:none;stroke:#4f2a2d;stroke-width:6.11533;stroke-linecap:butt;stroke-linejoin:round;stroke-miterlimit:10;stroke-dasharray:none;stroke-opacity:1"
         d="m 95.798474,149.68576 c -25.882479,-3.45516 -51.63379,-8.24652 -77.147497,-14.36794 4.192351,13.16934 8.73237,26.31421 13.604431,39.43156 -9.746276,10.02912 -19.802015,19.88702 -30.1693084,29.56146 27.8892294,6.69627 56.0291674,11.93405 84.3125164,15.71026 3.127975,-23.44308 6.263311,-46.88921 9.399858,-70.33534 z" /><path
         id="path20"
         style="fill:#8d463c;fill-opacity:1;fill-rule:nonzero;stroke:none;stroke-width:0.305765"
         d="m 297.9553,149.68576 c 25.88309,-3.45516 51.63469,-8.24652 77.14169,-14.36794 -4.19206,13.16934 -8.72657,26.31421 -13.60047,39.43156 9.74781,10.02912 19.80445,19.88702 30.16687,29.56146 -27.88587,6.69627 -56.0255,11.93405 -84.31496,15.71026 -3.128,-23.44308 -6.26208,-46.88921 -9.39313,-70.33534" /><path
         id="path22"
         style="fill:none;stroke:#4f2a2d;stroke-width:6.11533;stroke-linecap:butt;stroke-linejoin:round;stroke-miterlimit:10;stroke-dasharray:none;stroke-opacity:1"
         d="m 297.9553,149.68576 c 25.88309,-3.45516 51.63469,-8.24652 77.14169,-14.36794 -4.19206,13.16934 -8.72657,26.31421 -13.60047,39.43156 9.74781,10.02912 19.80445,19.88702 30.16687,29.56146 -27.88587,6.69627 -56.0255,11.93405 -84.31496,15.71026 -3.128,-23.44308 -6.26208,-46.88921 -9.39313,-70.33534 z" /><path
         id="path60"
         style="fill:#f57c23;fill-opacity:1;fill-rule:nonzero;stroke:none;stroke-width:0.305765"
         d="m 192.15662,260.03362 c 0,-2.30241 -1.87525,-4.17676 -4.17799,-4.17676 -2.30516,0 -4.18042,1.87435 -4.18042,4.17676 0,2.30547 1.87526,4.17982 4.18042,4.17982 2.30274,0 4.17799,-1.87435 4.17799,-4.17982" /><path
         id="path64"
         style="fill:#b25649;fill-opacity:1;fill-rule:nonzero;stroke:none;stroke-width:0.305765"
         d="m 351.394,176.80414 c -102.02491,20.11328 -207.00873,20.11328 -309.038822,0 -4.574575,23.20763 -9.14913,46.41527 -13.723705,69.61984 111.089647,21.89896 225.394427,21.89896 336.485307,0 -4.57427,-23.20457 -9.1424,-46.41221 -13.72278,-69.61984" /><path
         id="path66"
         style="fill:none;stroke:#4f2a2d;stroke-width:6.11533;stroke-linecap:butt;stroke-linejoin:round;stroke-miterlimit:10;stroke-dasharray:none;stroke-opacity:1"
         d="m 351.394,176.80414 c -102.02491,20.11328 -207.00873,20.11328 -309.038822,0 -4.574575,23.20763 -9.14913,46.41527 -13.723705,69.61984 111.089647,21.89896 225.394427,21.89896 336.485307,0 -4.57427,-23.20457 -9.1424,-46.41221 -13.72278,-69.61984 z" /><path
         id="path68"
         style="fill:none;stroke:#4f2a2d;stroke-width:6.11533;stroke-linecap:butt;stroke-linejoin:miter;stroke-miterlimit:10;stroke-dasharray:none;stroke-opacity:1"
         d="M 351.394,176.80414 297.9553,149.68576" /><path
         id="path70"
         style="fill:none;stroke:#4f2a2d;stroke-width:6.11533;stroke-linecap:butt;stroke-linejoin:miter;stroke-miterlimit:10;stroke-dasharray:none;stroke-opacity:1"
         d="M 42.355178,176.80414 95.798474,149.68576" /><g
         aria-label="LUCAS BRUM"
         transform="matrix(-3.0448781,0.27927748,0.27927748,3.0448781,-49.373456,-659.27206)"
         id="text1489"
         style="font-style:normal;font-variant:normal;font-weight:800;font-stretch:normal;font-size:11.6842px;line-height:1.25;font-family:Barlow;-inkscape-font-specification:'Barlow, Ultra-Bold';font-variant-ligatures:normal;font-variant-caps:normal;font-variant-numeric:normal;font-variant-east-asian:normal;fill:#ffffff;fill-opacity:1;stroke:none;stroke-width:0.438159"><path
           d="m -22.39908,287.1069 q 0.114834,-0.0216 0.136404,0.0933 l 1.466759,7.80869 q 0.02157,0.11484 -0.09326,0.13641 l -0.585652,0.11001 q -0.114834,0.0216 -0.136404,-0.0933 l -1.345967,-7.16562 q -0.0086,-0.0459 -0.05456,-0.0373 l -4.053631,0.76142 q -0.114834,0.0216 -0.136404,-0.0933 l -0.09059,-0.4823 q -0.02157,-0.11484 0.09326,-0.13641 z"
           id="path1668" /><path
           d="m -31.478778,288.62695 q 0.807276,-0.13137 1.482577,0.0902 0.675301,0.22157 1.115108,0.7419 0.441684,0.53186 0.567418,1.30454 l 0.889526,5.46641 q 0.01877,0.11532 -0.09656,0.13409 l -0.588158,0.0957 q -0.115325,0.0188 -0.134091,-0.0966 l -0.893279,-5.48948 q -0.133241,-0.8188 -0.748185,-1.25144 -0.613068,-0.42111 -1.478006,-0.28036 -0.864938,0.14075 -1.312861,0.7345 -0.446047,0.60529 -0.312806,1.4241 l 0.893278,5.48948 q 0.01877,0.11532 -0.09656,0.13409 l -0.588158,0.0957 q -0.115325,0.0188 -0.134092,-0.0966 l -0.889525,-5.46641 q -0.125735,-0.77268 0.124532,-1.41714 0.240611,-0.63105 0.810821,-1.05529 0.57021,-0.42425 1.389018,-0.55749 z"
           id="path1670" /><path
           d="m -38.607296,289.68577 q 0.810161,-0.1122 1.466846,0.11534 0.658289,0.23911 1.085644,0.76971 0.417385,0.54378 0.523174,1.30764 l 0.440789,3.18278 q 0.104187,0.75229 -0.151308,1.37746 -0.267069,0.62678 -0.837199,1.02422 -0.568528,0.40902 -1.378689,0.52122 -0.810162,0.1122 -1.466847,-0.11534 -0.656686,-0.22754 -1.070865,-0.74817 -0.425752,-0.51903 -0.528336,-1.25975 -0.008,-0.0579 0.0219,-0.0974 0.02991,-0.0395 0.07621,-0.046 l 0.585452,-0.11646 q 0.115737,-0.016 0.130163,0.0881 l 0.0048,0.0347 q 0.113803,0.82174 0.701942,1.23571 0.589741,0.42554 1.446198,0.30693 0.856456,-0.11862 1.308351,-0.68842 0.451895,-0.5698 0.339694,-1.37996 l -0.448804,-3.24064 q -0.1122,-0.81017 -0.701942,-1.23571 -0.589741,-0.42554 -1.446198,-0.30693 -0.856456,0.11862 -1.309954,0.67684 -0.451894,0.5698 -0.338091,1.39154 l 0.0032,0.0231 q 0.01443,0.10417 -0.101312,0.1202 l -0.595069,0.047 q -0.115737,0.016 -0.130163,-0.0881 -0.104186,-0.7523 0.162882,-1.37907 0.257098,-0.61359 0.827229,-1.01104 0.57013,-0.39744 1.380292,-0.50964 z"
           id="path1672" /><path
           d="m -47.960913,290.95651 q 0.104447,-0.0122 0.150114,0.0766 l 0.635126,1.408 q 0.01568,0.0335 0.05049,0.0294 l 3.469952,-0.4056 q 0.03482,-0.004 0.04235,-0.0402 l 0.293289,-1.51651 q 0.02396,-0.0969 0.12841,-0.10912 l 0.62668,-0.0733 q 0.127658,-0.0149 0.107763,0.1168 l -1.640972,8.20292 q -0.02396,0.0969 -0.12841,0.10912 l -0.789153,0.0923 q -0.104447,0.0122 -0.150114,-0.0766 l -3.500128,-7.60199 -0.01703,-0.0451 q -0.0095,-0.0812 0.09495,-0.0934 z m 4.205459,1.86118 q 0.0089,-0.0246 -0.0054,-0.0464 -0.02457,-0.009 -0.04778,-0.006 l -2.994139,0.34997 q -0.02321,0.003 -0.03346,0.0157 -0.0205,0.0259 -0.0062,0.0478 l 2.062126,4.55858 q 0.01432,0.0219 0.03753,0.0191 0.02321,-0.003 0.0321,-0.0273 z"
           id="path1674" /><path
           d="m -52.13239,291.28098 q 1.314164,-0.12729 2.139179,0.39148 0.813385,0.5199 0.909135,1.50843 l 0.03492,0.36053 q 0.01127,0.11629 -0.105033,0.12756 l -0.569859,0.0552 q -0.116298,0.0113 -0.127562,-0.10504 l -0.03041,-0.314 q -0.06534,-0.67453 -0.664117,-1.03913 -0.597655,-0.35297 -1.586186,-0.25722 -0.895492,0.0867 -1.324636,0.50395 -0.428018,0.42884 -0.367189,1.05685 0.03943,0.40704 0.288554,0.67638 0.237497,0.27047 0.715841,0.48239 0.466713,0.21305 1.313465,0.47146 0.906027,0.26441 1.419259,0.47295 0.50273,0.2213 0.84453,0.59906 0.331297,0.39051 0.392126,1.01851 0.09462,0.97691 -0.528086,1.57721 -0.633213,0.61306 -1.81945,0.72796 -1.290904,0.12504 -2.093786,-0.40762 -0.802882,-0.53265 -0.899758,-1.53281 l -0.02478,-0.25586 q -0.01127,-0.11629 0.105033,-0.12756 l 0.581489,-0.0563 q 0.116298,-0.0113 0.127562,0.10503 l 0.02028,0.20934 q 0.06533,0.67452 0.641983,1.05301 0.565019,0.37961 1.507031,0.28836 0.825714,-0.08 1.234978,-0.46004 0.409263,-0.38007 0.347308,-1.01971 -0.04055,-0.41867 -0.276924,-0.67751 -0.246874,-0.24608 -0.662563,-0.41712 -0.426192,-0.15828 -1.295076,-0.40281 -0.882768,-0.26666 -1.423766,-0.51947 -0.552628,-0.25168 -0.909437,-0.6632 -0.367313,-0.39876 -0.428142,-1.02677 -0.09462,-0.9769 0.570099,-1.62823 0.664723,-0.65133 1.943998,-0.77524 z"
           id="path1676" /><path
           d="m -62.687866,296.51535 q 0.05581,-0.0391 -0.0049,-0.0699 -0.647485,-0.21197 -1.009218,-0.6901 -0.361733,-0.47813 -0.411933,-1.1891 -0.07407,-1.04897 0.560785,-1.67946 0.623197,-0.62967 1.718784,-0.70702 l 2.820554,-0.19916 q 0.116552,-0.008 0.124782,0.10832 l 0.559616,7.92552 q 0.0082,0.11656 -0.108322,0.12478 l -2.738968,0.1934 q -1.130552,0.0798 -1.81109,-0.43436 -0.692192,-0.51336 -0.76379,-1.52736 -0.04526,-0.64103 0.237331,-1.11781 0.271762,-0.46429 0.826407,-0.73772 z m 3.441499,2.95473 q 0.04662,-0.003 0.04333,-0.0499 l -0.197512,-2.79724 q -0.0033,-0.0466 -0.04991,-0.0433 l -1.981381,0.13991 q -0.734276,0.0518 -1.13836,0.46691 -0.415739,0.4159 -0.370476,1.05693 0.04773,0.676 0.518609,1.04101 0.460046,0.37748 1.194322,0.32563 z m -2.536172,-6.55607 q -0.734277,0.0519 -1.135891,0.50188 -0.413271,0.45086 -0.36307,1.16183 0.0502,0.71097 0.53438,1.09846 0.473347,0.39997 1.230933,0.34647 l 2.016347,-0.14237 q 0.04662,-0.003 0.04333,-0.0499 l -0.213148,-3.01869 q -0.0033,-0.0466 -0.04991,-0.0433 z"
           id="path1678" /><path
           d="m -70.967626,292.71144 q 0.105019,-0.005 0.144237,0.0745 l 1.901824,3.52884 q 0.01347,0.0344 0.04848,0.0326 l 1.983678,-0.10229 q 0.04668,-0.002 0.04427,-0.0491 l -0.184119,-3.57062 q -0.006,-0.11669 0.11067,-0.1227 l 0.595104,-0.0307 q 0.116687,-0.006 0.122704,0.11067 l 0.409153,7.93471 q 0.006,0.11669 -0.11067,0.12271 l -3.022193,0.15584 q -1.003508,0.0517 -1.65444,-0.54648 -0.650331,-0.58655 -0.702077,-1.59006 -0.04212,-0.8168 0.371809,-1.41144 0.413927,-0.59463 1.163969,-0.7971 0.04547,-0.0257 0.02033,-0.0595 l -1.935627,-3.50371 q -0.01287,-0.0227 -0.01468,-0.0577 -0.0042,-0.0817 0.08914,-0.0865 z m 4.269558,7.24427 q 0.04668,-0.002 0.04427,-0.0491 l -0.152229,-2.95218 q -0.0024,-0.0467 -0.04908,-0.0443 l -2.170378,0.11191 q -0.676784,0.0349 -1.075196,0.47664 -0.398412,0.44173 -0.363514,1.11852 0.0349,0.67678 0.476632,1.07519 0.442336,0.41008 1.119121,0.37518 z"
           id="path1680" /><path
           d="m -76.040585,292.81069 q 0.817447,-0.027 1.458864,0.27908 0.641418,0.30612 1.011066,0.87842 0.370034,0.58398 0.395915,1.3664 l 0.183093,5.53528 q 0.0039,0.11678 -0.112915,0.12064 l -0.595569,0.0197 q -0.116778,0.004 -0.120641,-0.11291 l -0.183866,-5.55864 q -0.02742,-0.82913 -0.581987,-1.33686 -0.554175,-0.49605 -1.430011,-0.46708 -0.875836,0.029 -1.39602,0.56056 -0.519797,0.54327 -0.492371,1.37239 l 0.183866,5.55864 q 0.0039,0.11678 -0.112916,0.12064 l -0.595568,0.0197 q -0.116778,0.004 -0.120641,-0.11291 l -0.183094,-5.53529 q -0.02588,-0.78241 0.304755,-1.38957 0.319343,-0.59509 0.939129,-0.94293 0.619786,-0.34783 1.448911,-0.37526 z"
           id="path1682" /><path
           d="m -86.110513,301.21774 q -0.05728,0.0826 -0.139058,0.0837 l -0.607519,0.008 q -0.116831,0.002 -0.118458,-0.11521 l -0.110661,-7.94448 q -0.0016,-0.11683 0.115203,-0.11846 l 0.595837,-0.008 q 0.11683,-0.002 0.118458,0.1152 l 0.09048,6.49579 q 4.88e-4,0.035 0.02402,0.0464 0.02353,0.0113 0.03472,-0.0239 l 1.863656,-2.94729 q 0.05728,-0.0826 0.139057,-0.0837 l 0.30376,-0.004 q 0.08178,-10e-4 0.141173,0.0682 l 1.944699,2.87087 q 0.01217,0.0349 0.03538,0.0229 0.0232,-0.012 0.02271,-0.0471 l -0.08999,-6.46073 q -0.0016,-0.11683 0.115203,-0.11846 l 0.595836,-0.008 q 0.116831,-0.002 0.118458,0.1152 l 0.110661,7.94449 q 0.0016,0.11683 -0.115203,0.11846 l -0.60752,0.008 q -0.09346,0.001 -0.141173,-0.0682 l -2.242796,-3.29908 q -0.01185,-0.0115 -0.03521,-0.0112 -0.02337,3.3e-4 -0.03489,0.0122 z"
           id="path1684" /></g><path
         id="path102"
         style="fill:#f5bb26;fill-opacity:1;fill-rule:nonzero;stroke:none;stroke-width:0.305765"
         d="m 338.4815,216.31215 c 0,-6.75437 -5.47626,-12.23063 -12.23063,-12.23063 -6.75437,0 -12.23063,5.47626 -12.23063,12.23063 0,6.75438 5.47626,12.23064 12.23063,12.23064 6.75437,0 12.23063,-5.47626 12.23063,-12.23064" /><path
         id="path104"
         style="fill:none;stroke:#4f2a2d;stroke-width:6.11533;stroke-linecap:butt;stroke-linejoin:round;stroke-miterlimit:10;stroke-dasharray:none;stroke-opacity:1"
         d="m 338.4815,216.31215 c 0,-6.75437 -5.47626,-12.23063 -12.23063,-12.23063 -6.75437,0 -12.23063,5.47626 -12.23063,12.23063 0,6.75438 5.47626,12.23064 12.23063,12.23064 6.75437,0 12.23063,-5.47626 12.23063,-12.23064 z" /><path
         id="path106"
         style="fill:#f5bb26;fill-opacity:1;fill-rule:nonzero;stroke:none;stroke-width:0.305765"
         d="m 79.726502,216.31215 c 0,-6.75437 -5.476283,-12.23063 -12.230654,-12.23063 -6.752833,0 -12.230634,5.47626 -12.230634,12.23063 0,6.75438 5.477801,12.23064 12.230634,12.23064 6.754371,0 12.230654,-5.47626 12.230654,-12.23064" /><path
         id="path108"
         style="fill:none;stroke:#4f2a2d;stroke-width:6.11533;stroke-linecap:butt;stroke-linejoin:round;stroke-miterlimit:10;stroke-dasharray:none;stroke-opacity:1"
         d="m 79.726502,216.31215 c 0,-6.75437 -5.476283,-12.23063 -12.230654,-12.23063 -6.752833,0 -12.230634,5.47626 -12.230634,12.23063 0,6.75438 5.477801,12.23064 12.230634,12.23064 6.754371,0 12.230654,-5.47626 12.230654,-12.23064 z" /></g></g></svg>
