<?xml version="1.0" encoding="iso-8859-1"?>
<!-- Generator: Adobe Illustrator 19.0.0, SVG Export Plug-In . SVG Version: 6.00 Build 0)  -->
<svg version="1.1" id="Capa_1" xmlns="http://www.w3.org/2000/svg" xmlns:xlink="http://www.w3.org/1999/xlink" x="0px" y="0px"
	 viewBox="0 0 512 512" style="enable-background:new 0 0 512 512;" xml:space="preserve">
<path style="fill:#F2F2F2;" d="M512,256c0,13.113-0.982,26.008-2.884,38.588c-1.149,7.565-2.623,15.026-4.42,22.361
	C477.362,428.91,376.383,512,256,512C135.784,512,34.92,429.14,7.419,317.419C2.57,297.744,0,277.17,0,256
	c0-15.036,1.296-29.759,3.793-44.084C24.68,91.533,129.651,0,256,0c126.13,0,230.943,91.209,252.103,211.268
	c1.202,6.781,2.132,13.667,2.769,20.626C511.624,239.825,512,247.871,512,256z"/>
<g>
	<path style="fill:#009B00;" d="M102.787,220.327v80.081c0,5.987-3.605,11.254-9.195,13.406c-5.59,2.152-11.797,0.679-15.809-3.751
		l-61.827-68.19v65.296c0,5.11-3.678,9.362-8.537,10.25C2.57,297.744,0,277.17,0,256c0-15.036,1.296-29.759,3.793-44.084
		c0.167-0.084,0.334-0.157,0.512-0.219c5.59-2.152,11.797-0.679,15.82,3.751l61.827,68.19v-63.31c0-5.757,4.66-10.418,10.418-10.418
		C98.126,209.91,102.787,214.57,102.787,220.327z"/>
	<path style="fill:#009B00;" d="M382.656,317.588c-5.755,0-10.421-4.665-10.421-10.421v-65.29l-61.825,68.184
		c-4.024,4.437-10.232,5.908-15.819,3.753c-5.586-2.156-9.195-7.418-9.195-13.405v-80.08c0-5.755,4.665-10.421,10.421-10.421
		c5.755,0,10.421,4.665,10.421,10.421v63.307l61.826-68.186c4.021-4.435,10.231-5.91,15.817-3.753
		c5.586,2.156,9.196,7.417,9.196,13.405v82.064C393.077,312.924,388.412,317.588,382.656,317.588z"/>
	<path style="fill:#009B00;" d="M271.752,219.838v28.031H250.91v-28.031c0-5.761,4.659-10.421,10.421-10.421
		C267.092,209.418,271.752,214.078,271.752,219.838z"/>
	<path style="fill:#009B00;" d="M250.91,260.151h20.842v48.5c0,5.761-4.659,10.421-10.421,10.421
		c-5.762,0-10.421-4.659-10.421-10.421L250.91,260.151L250.91,260.151z"/>
	<path style="fill:#009B00;" d="M510.871,231.894l-32.225,32.225l-14.733,14.743l-35.182,35.182
		c-2.038,2.027-4.702,3.051-7.367,3.051c-2.675,0-5.339-1.024-7.377-3.051c-4.065-4.075-4.065-10.668,0-14.743l35.182-35.182
		l14.743-14.733l35.182-35.182c2.456-2.456,5.831-3.438,9.007-2.936C509.304,218.049,510.234,224.935,510.871,231.894z"/>
	<path style="fill:#009B00;" d="M509.116,294.588c-1.149,7.565-2.623,15.026-4.42,22.361c-2.048-0.355-4.012-1.327-5.601-2.905
		l-35.182-35.182l-14.743-14.744l-35.182-35.182c-4.065-4.065-4.065-10.668,0-14.733c4.075-4.075,10.668-4.075,14.743,0
		L509.116,294.588z"/>
	<path style="fill:#009B00;" d="M212.742,262.608h-38.868c-5.96,0-10.793,4.832-10.793,10.793c0,5.96,4.832,10.793,10.793,10.793
		h26.409l-5.672,9.825h-36.263l-18.132-31.411l18.132-31.395h36.263l9.616,16.658h24.92l-22.077-38.243h-61.183l-30.591,52.98
		l30.591,52.996h61.183l30.591-52.996H212.742z"/>
</g>
<g>
</g>
<g>
</g>
<g>
</g>
<g>
</g>
<g>
</g>
<g>
</g>
<g>
</g>
<g>
</g>
<g>
</g>
<g>
</g>
<g>
</g>
<g>
</g>
<g>
</g>
<g>
</g>
<g>
</g>
</svg>
